<?xml version="1.0" encoding="utf-8"?>
<!-- Generator: Adobe Illustrator 16.0.0, SVG Export Plug-In . SVG Version: 6.00 Build 0)  -->
<!DOCTYPE svg PUBLIC "-//W3C//DTD SVG 1.1//EN" "http://www.w3.org/Graphics/SVG/1.1/DTD/svg11.dtd">
<svg version="1.1" xmlns="http://www.w3.org/2000/svg" xmlns:xlink="http://www.w3.org/1999/xlink" x="0px" y="0px"
	 width="850.394px" height="1700.788px" viewBox="0 0 850.394 1700.788" enable-background="new 0 0 850.394 1700.788"
	 xml:space="preserve">
<g id="Ebene_1" display="none">
	<line display="inline" fill="none" stroke="#1E1E1C" stroke-width="3" x1="265.623" y1="253.243" x2="410.066" y2="351.846"/>
	<g display="inline">
		<path fill="#058855" stroke="#1E1E1C" stroke-width="0.5" stroke-miterlimit="10" d="M187.889,1179.983
			c6.414,0,11.611,5.197,11.611,11.611c0,6.408-5.197,11.605-11.611,11.605c-6.41,0-11.607-5.197-11.607-11.605
			C176.281,1185.18,181.479,1179.983,187.889,1179.983z"/>
		<path fill="#F0CA02" stroke="#1E1E1C" stroke-width="0.5" stroke-miterlimit="10" d="M187.889,1183.299
			c4.58,0,8.293,3.713,8.293,8.295c0,4.578-3.713,8.289-8.293,8.289c-4.578,0-8.291-3.711-8.291-8.289
			C179.598,1187.012,183.311,1183.299,187.889,1183.299z"/>
		<path fill="#058855" stroke="#1E1E1C" stroke-width="0.5" stroke-miterlimit="10" d="M190.234,1190.653h-4.689v-5.002h-1.879
			v11.883h1.879v-5.318h4.689v5.318h1.877v-11.883h-1.877V1190.653z"/>
	</g>
	<g display="inline">
		<path fill="#058855" stroke="#1E1E1C" stroke-width="0.5" stroke-miterlimit="10" d="M503.696,438.982
			c6.414,0,11.611,5.197,11.611,11.611c0,6.408-5.197,11.605-11.611,11.605c-6.41,0-11.607-5.197-11.607-11.605
			C492.089,444.179,497.286,438.982,503.696,438.982z"/>
		<path fill="#F0CA02" stroke="#1E1E1C" stroke-width="0.5" stroke-miterlimit="10" d="M503.696,442.298
			c4.58,0,8.293,3.713,8.293,8.295c0,4.578-3.713,8.289-8.293,8.289c-4.578,0-8.291-3.711-8.291-8.289
			C495.405,446.011,499.118,442.298,503.696,442.298z"/>
		<path fill="#058855" stroke="#1E1E1C" stroke-width="0.5" stroke-miterlimit="10" d="M506.042,449.652h-4.689v-5.002h-1.879
			v11.883h1.879v-5.318h4.689v5.318h1.877V444.65h-1.877V449.652z"/>
	</g>
	<g display="inline">
		<path fill="#058855" stroke="#1E1E1C" stroke-width="0.5" stroke-miterlimit="10" d="M549.73,333.851
			c6.414,0,11.611,5.197,11.611,11.611c0,6.408-5.197,11.605-11.611,11.605c-6.41,0-11.607-5.197-11.607-11.605
			C538.123,339.048,543.32,333.851,549.73,333.851z"/>
		<path fill="#F0CA02" stroke="#1E1E1C" stroke-width="0.5" stroke-miterlimit="10" d="M549.73,337.167
			c4.58,0,8.293,3.713,8.293,8.295c0,4.578-3.713,8.289-8.293,8.289c-4.578,0-8.291-3.711-8.291-8.289
			C541.439,340.88,545.152,337.167,549.73,337.167z"/>
		<path fill="#058855" stroke="#1E1E1C" stroke-width="0.5" stroke-miterlimit="10" d="M552.076,344.521h-4.689v-5.002h-1.879
			v11.883h1.879v-5.318h4.689v5.318h1.877v-11.883h-1.877V344.521z"/>
	</g>
	<g display="inline">
		<path fill="#058855" stroke="#1E1E1C" stroke-width="0.5" stroke-miterlimit="10" d="M597.839,213.274
			c6.414,0,11.611,5.197,11.611,11.611c0,6.408-5.197,11.605-11.611,11.605c-6.41,0-11.607-5.197-11.607-11.605
			C586.231,218.471,591.429,213.274,597.839,213.274z"/>
		<path fill="#F0CA02" stroke="#1E1E1C" stroke-width="0.5" stroke-miterlimit="10" d="M597.839,216.59
			c4.58,0,8.293,3.713,8.293,8.295c0,4.578-3.713,8.289-8.293,8.289c-4.578,0-8.291-3.711-8.291-8.289
			C589.548,220.303,593.261,216.59,597.839,216.59z"/>
		<path fill="#058855" stroke="#1E1E1C" stroke-width="0.5" stroke-miterlimit="10" d="M600.185,223.944h-4.689v-5.002h-1.879
			v11.883h1.879v-5.318h4.689v5.318h1.877v-11.883h-1.877V223.944z"/>
	</g>
	<g display="inline">
		<path fill="#058855" stroke="#1E1E1C" stroke-width="0.5" stroke-miterlimit="10" d="M349.354,832.977
			c6.414,0,11.611,5.197,11.611,11.611c0,6.408-5.197,11.605-11.611,11.605c-6.41,0-11.607-5.197-11.607-11.605
			C337.746,838.174,342.943,832.977,349.354,832.977z"/>
		<path fill="#F0CA02" stroke="#1E1E1C" stroke-width="0.5" stroke-miterlimit="10" d="M349.354,836.293
			c4.58,0,8.293,3.713,8.293,8.295c0,4.578-3.713,8.289-8.293,8.289c-4.578,0-8.291-3.711-8.291-8.289
			C341.062,840.006,344.775,836.293,349.354,836.293z"/>
		<path fill="#058855" stroke="#1E1E1C" stroke-width="0.5" stroke-miterlimit="10" d="M351.699,843.647h-4.689v-5.002h-1.879
			v11.883h1.879v-5.318h4.689v5.318h1.877v-11.883h-1.877V843.647z"/>
	</g>
	<g display="inline">
		<path fill="#058855" stroke="#1E1E1C" stroke-width="0.5" stroke-miterlimit="10" d="M394.63,728.252
			c6.414,0,11.611,5.197,11.611,11.611c0,6.408-5.197,11.605-11.611,11.605c-6.41,0-11.607-5.197-11.607-11.605
			C383.022,733.45,388.22,728.252,394.63,728.252z"/>
		<path fill="#F0CA02" stroke="#1E1E1C" stroke-width="0.5" stroke-miterlimit="10" d="M394.63,731.569
			c4.58,0,8.293,3.713,8.293,8.295c0,4.578-3.713,8.289-8.293,8.289c-4.578,0-8.291-3.711-8.291-8.289
			C386.339,735.282,390.052,731.569,394.63,731.569z"/>
		<path fill="#058855" stroke="#1E1E1C" stroke-width="0.5" stroke-miterlimit="10" d="M396.976,738.922h-4.689v-5.002h-1.879
			v11.883h1.879v-5.318h4.689v5.318h1.877V733.92h-1.877V738.922z"/>
	</g>
	<g display="inline">
		<path fill="#058855" stroke="#1E1E1C" stroke-width="0.5" stroke-miterlimit="10" d="M443.792,610.207
			c6.414,0,11.611,5.197,11.611,11.611c0,6.408-5.197,11.605-11.611,11.605c-6.41,0-11.607-5.197-11.607-11.605
			C432.185,615.404,437.382,610.207,443.792,610.207z"/>
		<path fill="#F0CA02" stroke="#1E1E1C" stroke-width="0.5" stroke-miterlimit="10" d="M443.792,613.523
			c4.58,0,8.293,3.713,8.293,8.295c0,4.578-3.713,8.289-8.293,8.289c-4.578,0-8.291-3.711-8.291-8.289
			C435.501,617.236,439.214,613.523,443.792,613.523z"/>
		<path fill="#058855" stroke="#1E1E1C" stroke-width="0.5" stroke-miterlimit="10" d="M446.138,620.876h-4.689v-5.002h-1.879
			v11.883h1.879v-5.318h4.689v5.318h1.877v-11.883h-1.877V620.876z"/>
	</g>
	<g display="inline">
		<path fill="#058855" stroke="#1E1E1C" stroke-width="0.5" stroke-miterlimit="10" d="M272.201,1002.335
			c6.414,0,11.611,5.197,11.611,11.611c0,6.408-5.197,11.605-11.611,11.605c-6.41,0-11.607-5.197-11.607-11.605
			C260.594,1007.533,265.791,1002.335,272.201,1002.335z"/>
		<path fill="#F0CA02" stroke="#1E1E1C" stroke-width="0.5" stroke-miterlimit="10" d="M272.201,1005.652
			c4.58,0,8.293,3.713,8.293,8.295c0,4.578-3.713,8.289-8.293,8.289c-4.578,0-8.291-3.711-8.291-8.289
			C263.91,1009.365,267.623,1005.652,272.201,1005.652z"/>
		<path fill="#058855" stroke="#1E1E1C" stroke-width="0.5" stroke-miterlimit="10" d="M274.547,1013.005h-4.689v-5.002h-1.879
			v11.883h1.879v-5.318h4.689v5.318h1.877v-11.883h-1.877V1013.005z"/>
	</g>
	
		<rect x="209.943" y="1249.916" transform="matrix(0.8057 0.5923 -0.5923 0.8057 794.7733 81.7523)" display="inline" fill="#C64317" stroke="#000000" width="125.643" height="5"/>
	<path display="inline" fill="#C64317" stroke="#000000" d="M585.132,308.262l-88.377-67.076l0.015-0.019
		c-0.381-0.234-0.817-0.539-1.348-0.909l-124.565-86.895l2.861-4.101c1.255,0.876,125.499,87.547,125.975,87.878l0.086,0.062
		l88.377,67.076L585.132,308.262z"/>
	<polygon display="inline" fill="#C64317" stroke="#000000" points="763.588,620.756 512.51,482.62 353.519,440.54 169.71,392.478 
		170.976,387.641 354.791,435.704 514.383,477.943 514.651,478.091 765.998,616.375 	"/>
	<polygon display="inline" fill="#C64317" stroke="#000000" points="536.776,1006.156 454.551,979.307 320.217,982.475 
		287.762,921.228 197.271,865.09 199.908,860.842 291.547,917.693 323.188,977.403 455.289,974.288 538.329,1001.402 	"/>
	<polygon display="inline" fill="#C64317" stroke="#000000" points="466.331,1163.627 393.657,1122.22 393.513,1122.108 
		304.326,1052.274 248.136,1023.758 130.178,974.89 132.092,970.271 250.312,1019.256 307.023,1048.036 307.216,1048.186 
		396.45,1118.058 468.806,1159.284 	"/>
	<polygon display="inline" fill="#C64317" stroke="#000000" points="453.595,1173.694 379.394,1127.319 333.883,1099.506 
		290.583,1070.642 259.142,1038.754 184.164,1005.257 130.289,985.895 131.98,981.19 186.118,1000.654 262.04,1034.573 
		293.784,1066.767 336.573,1095.293 382.022,1123.066 456.245,1169.454 	"/>
	
		<rect x="542.606" y="217.323" transform="matrix(0.8154 0.5788 -0.5788 0.8154 253.5326 -355.5135)" display="inline" fill="#C64317" stroke="#000000" width="283.325" height="5"/>
	<path display="inline" fill="#7DBB4D" stroke="#000000" stroke-miterlimit="10" d="M191.454,1213.457
		c25.296-28.668,101.573-197.504,101.573-197.504s64.504-146.663,72.936-168.586c8.433-21.923,80.688-185.077,92.492-215.432
		c11.806-30.355,62.392-161.334,62.392-169.766s107.489-248.741,109.456-258.578c1.969-9.837,15.221-41.66,15.221-41.66
		l17.115,12.991c0,0-61.005,172.012-69.437,197.308c-8.431,25.295-142.044,345.707-147.103,367.63
		c-5.061,21.923-78.028,175.513-123.22,274.425c-43.927,96.146-106.583,211.818-106.583,211.818L191.454,1213.457z"/>
	<path display="inline" fill="#2F57A4" d="M207.163,1221.373l-5.117-2.441c1.963-4.114,196.373-411.765,204.649-436.953
		c4.38-13.332,52.541-131.281,99.115-245.348c44.174-108.186,85.897-210.371,89.334-220.898
		c7.109-21.776,55.951-147.936,56.44-149.199l4.704,3.57c-0.489,1.262-48.693,125.756-55.756,147.388
		c-3.499,10.722-45.261,113-89.475,221.282c-46.537,113.976-94.659,231.832-98.979,244.975
		C403.691,809.278,215.184,1204.558,207.163,1221.373z"/>
</g>
<g id="Stops" display="none">
</g>
<g id="Text" display="none">
	<g display="inline">
		<path d="M479.111,1278.522h3.348l5.797,21.168h0.07l6.266-21.168h3.383l6.229,21.168h0.072l5.904-21.168h3.168l-7.488,25.488
			h-3.275l-6.301-21.6h-0.072l-6.336,21.6h-3.312L479.111,1278.522z"/>
		<path d="M516.227,1276.794h2.809v12.708h0.072c0.191-0.336,0.455-0.666,0.791-0.99s0.738-0.617,1.207-0.882
			c0.467-0.264,0.99-0.479,1.566-0.648c0.574-0.167,1.188-0.252,1.836-0.252c1.104,0,2.057,0.169,2.861,0.504
			c0.803,0.337,1.469,0.805,1.998,1.404c0.527,0.601,0.918,1.326,1.17,2.178c0.252,0.853,0.377,1.782,0.377,2.79v10.404h-2.807
			v-10.116c0-1.416-0.312-2.531-0.936-3.348c-0.625-0.815-1.598-1.225-2.916-1.225c-0.914,0-1.699,0.157-2.359,0.469
			s-1.199,0.756-1.619,1.332s-0.732,1.26-0.936,2.052c-0.205,0.792-0.307,1.668-0.307,2.628v8.208h-2.809V1276.794z"/>
		<path d="M536.027,1289.322c0.863-0.887,1.889-1.541,3.078-1.962c1.188-0.419,2.393-0.63,3.617-0.63c2.496,0,4.295,0.589,5.4,1.765
			c1.104,1.176,1.656,2.964,1.656,5.363v7.236c0,0.48,0.023,0.979,0.072,1.494c0.047,0.517,0.107,0.99,0.18,1.422h-2.701
			c-0.096-0.384-0.15-0.81-0.162-1.278c-0.012-0.468-0.018-0.882-0.018-1.241h-0.072c-0.553,0.863-1.289,1.571-2.213,2.123
			c-0.926,0.553-2.035,0.828-3.33,0.828c-0.865,0-1.674-0.107-2.43-0.323c-0.758-0.217-1.418-0.534-1.98-0.954
			c-0.564-0.42-1.014-0.942-1.35-1.566c-0.338-0.624-0.504-1.344-0.504-2.16c0-1.392,0.359-2.483,1.08-3.275
			c0.719-0.792,1.613-1.38,2.682-1.765c1.066-0.384,2.219-0.623,3.455-0.72c1.236-0.096,2.371-0.144,3.402-0.144h1.08v-0.505
			c0-1.224-0.367-2.147-1.098-2.771c-0.732-0.624-1.76-0.937-3.078-0.937c-0.912,0-1.807,0.15-2.682,0.45
			c-0.877,0.301-1.65,0.763-2.322,1.387L536.027,1289.322z M544.162,1295.911c-1.799,0-3.229,0.252-4.283,0.756
			c-1.057,0.504-1.584,1.332-1.584,2.483c0,1.057,0.354,1.807,1.062,2.25c0.707,0.444,1.588,0.666,2.645,0.666
			c0.816,0,1.531-0.138,2.143-0.414c0.611-0.275,1.121-0.642,1.529-1.098s0.721-0.99,0.938-1.602
			c0.215-0.612,0.336-1.266,0.359-1.962v-1.08H544.162z"/>
		<path d="M564.143,1289.539h-4.969v8.424c0,0.552,0.012,1.062,0.037,1.53c0.023,0.468,0.119,0.876,0.287,1.224
			s0.42,0.624,0.756,0.828s0.816,0.306,1.439,0.306c0.408,0,0.828-0.048,1.262-0.144c0.432-0.096,0.84-0.24,1.223-0.433l0.109,2.557
			c-0.48,0.216-1.016,0.371-1.604,0.468c-0.588,0.096-1.146,0.144-1.674,0.144c-1.008,0-1.812-0.132-2.412-0.396
			s-1.068-0.636-1.404-1.116c-0.336-0.479-0.557-1.074-0.666-1.782c-0.107-0.707-0.162-1.494-0.162-2.357v-9.252h-3.672v-2.376
			h3.672v-4.788h2.809v4.788h4.969V1289.539z"/>
		<path d="M577.967,1299.583c0.551,0.696,1.156,1.248,1.816,1.655c0.66,0.409,1.494,0.612,2.502,0.612
			c0.434,0,0.871-0.048,1.314-0.144s0.846-0.252,1.207-0.469c0.359-0.216,0.646-0.485,0.863-0.81s0.324-0.714,0.324-1.17
			s-0.104-0.828-0.307-1.116s-0.475-0.533-0.811-0.738c-0.336-0.203-0.719-0.365-1.15-0.485c-0.434-0.12-0.877-0.228-1.332-0.324
			c-0.793-0.168-1.549-0.36-2.27-0.576c-0.719-0.216-1.35-0.498-1.889-0.846c-0.541-0.348-0.973-0.798-1.297-1.351
			c-0.324-0.552-0.486-1.26-0.486-2.123c0-0.816,0.182-1.536,0.541-2.16s0.84-1.14,1.439-1.548s1.271-0.721,2.016-0.937
			s1.512-0.324,2.305-0.324c1.199,0,2.311,0.24,3.33,0.721c1.02,0.479,1.818,1.26,2.395,2.34l-2.34,1.548
			c-0.361-0.6-0.836-1.086-1.422-1.458c-0.59-0.372-1.303-0.559-2.143-0.559c-0.385,0-0.773,0.049-1.17,0.145
			s-0.75,0.24-1.062,0.432c-0.312,0.192-0.57,0.438-0.773,0.738c-0.205,0.301-0.307,0.643-0.307,1.026
			c0,0.359,0.113,0.666,0.342,0.918s0.541,0.474,0.936,0.666c0.396,0.192,0.852,0.359,1.369,0.504
			c0.516,0.144,1.049,0.264,1.602,0.359c0.744,0.145,1.451,0.331,2.125,0.559c0.67,0.229,1.26,0.534,1.764,0.918
			s0.9,0.864,1.188,1.439c0.287,0.576,0.432,1.284,0.432,2.124c0,0.961-0.191,1.776-0.576,2.448
			c-0.383,0.672-0.895,1.219-1.529,1.638c-0.637,0.421-1.355,0.727-2.16,0.918c-0.805,0.192-1.627,0.288-2.467,0.288
			c-1.439,0-2.682-0.222-3.725-0.666c-1.045-0.443-1.986-1.266-2.826-2.466L577.967,1299.583z"/>
		<path d="M592.941,1276.794h2.809v12.708h0.072c0.191-0.336,0.455-0.666,0.791-0.99s0.738-0.617,1.207-0.882
			c0.467-0.264,0.99-0.479,1.566-0.648c0.574-0.167,1.188-0.252,1.836-0.252c1.104,0,2.057,0.169,2.861,0.504
			c0.803,0.337,1.469,0.805,1.998,1.404c0.527,0.601,0.918,1.326,1.17,2.178c0.252,0.853,0.377,1.782,0.377,2.79v10.404h-2.807
			v-10.116c0-1.416-0.312-2.531-0.936-3.348c-0.625-0.815-1.598-1.225-2.916-1.225c-0.914,0-1.699,0.157-2.359,0.469
			s-1.199,0.756-1.619,1.332s-0.732,1.26-0.936,2.052c-0.205,0.792-0.307,1.668-0.307,2.628v8.208h-2.809V1276.794z"/>
		<path d="M611.986,1295.586c0-1.319,0.227-2.521,0.684-3.601c0.455-1.079,1.08-2.01,1.871-2.79c0.793-0.779,1.74-1.386,2.844-1.817
			c1.104-0.433,2.305-0.648,3.602-0.648c1.295,0,2.494,0.216,3.6,0.648c1.104,0.432,2.051,1.038,2.844,1.817
			c0.791,0.78,1.416,1.711,1.871,2.79c0.457,1.08,0.686,2.281,0.686,3.601c0,1.32-0.229,2.52-0.686,3.6
			c-0.455,1.08-1.08,2.011-1.871,2.79c-0.793,0.78-1.74,1.386-2.844,1.818c-1.105,0.432-2.305,0.647-3.6,0.647
			c-1.297,0-2.498-0.216-3.602-0.647c-1.104-0.433-2.051-1.038-2.844-1.818c-0.791-0.779-1.416-1.71-1.871-2.79
			C612.213,1298.106,611.986,1296.907,611.986,1295.586z M615.01,1295.586c0,0.888,0.137,1.71,0.414,2.466
			c0.275,0.756,0.678,1.416,1.205,1.98c0.527,0.563,1.158,1.008,1.891,1.331c0.732,0.324,1.553,0.486,2.467,0.486
			c0.91,0,1.732-0.162,2.465-0.486c0.732-0.323,1.361-0.768,1.891-1.331c0.527-0.564,0.93-1.225,1.205-1.98s0.414-1.578,0.414-2.466
			s-0.139-1.71-0.414-2.466c-0.275-0.757-0.678-1.416-1.205-1.98c-0.529-0.563-1.158-1.008-1.891-1.332s-1.555-0.486-2.465-0.486
			c-0.914,0-1.734,0.162-2.467,0.486s-1.363,0.769-1.891,1.332c-0.527,0.564-0.93,1.224-1.205,1.98
			C615.146,1293.876,615.01,1294.699,615.01,1295.586z"/>
		<path d="M649.029,1300.014c0,0.769,0.023,1.488,0.072,2.16c0.047,0.672,0.072,1.284,0.072,1.836h-2.664
			c0-0.456-0.014-0.912-0.037-1.368c-0.023-0.455-0.035-0.924-0.035-1.404h-0.072c-0.191,0.409-0.463,0.805-0.811,1.188
			s-0.762,0.727-1.242,1.026s-1.02,0.54-1.619,0.72s-1.248,0.27-1.943,0.27c-1.105,0-2.059-0.168-2.863-0.504
			s-1.471-0.804-1.998-1.403s-0.918-1.326-1.17-2.179c-0.252-0.852-0.377-1.781-0.377-2.79v-10.403h2.807v10.115
			c0,1.417,0.312,2.533,0.938,3.349c0.623,0.816,1.596,1.224,2.916,1.224c0.91,0,1.697-0.155,2.357-0.468
			c0.66-0.312,1.199-0.756,1.619-1.332s0.732-1.26,0.938-2.052c0.203-0.792,0.305-1.668,0.305-2.628v-8.208h2.809V1300.014z"/>
		<path d="M654.609,1276.794h2.807v27.216h-2.807V1276.794z"/>
		<path d="M677,1301.022h-0.072c-0.527,0.961-1.361,1.771-2.502,2.431c-1.139,0.659-2.465,0.989-3.977,0.989
			c-1.178,0-2.281-0.222-3.312-0.666c-1.033-0.443-1.926-1.062-2.682-1.854s-1.35-1.729-1.783-2.809
			c-0.432-1.079-0.646-2.255-0.646-3.527s0.215-2.448,0.646-3.528c0.434-1.08,1.033-2.016,1.801-2.808s1.697-1.41,2.789-1.854
			c1.092-0.443,2.299-0.666,3.619-0.666c1.225,0,2.346,0.252,3.365,0.756c1.02,0.505,1.914,1.213,2.682,2.124H677v-12.815h2.809
			v27.216H677V1301.022z M677,1295.586c0-0.888-0.139-1.71-0.414-2.466c-0.275-0.757-0.678-1.416-1.205-1.98
			c-0.529-0.563-1.158-1.008-1.891-1.332s-1.555-0.486-2.465-0.486c-0.914,0-1.734,0.162-2.467,0.486s-1.363,0.769-1.891,1.332
			c-0.527,0.564-0.93,1.224-1.205,1.98c-0.277,0.756-0.414,1.578-0.414,2.466s0.137,1.71,0.414,2.466
			c0.275,0.756,0.678,1.416,1.205,1.98c0.527,0.563,1.158,1.008,1.891,1.331c0.732,0.324,1.553,0.486,2.467,0.486
			c0.91,0,1.732-0.162,2.465-0.486c0.732-0.323,1.361-0.768,1.891-1.331c0.527-0.564,0.93-1.225,1.205-1.98
			S677,1296.474,677,1295.586z"/>
		<path d="M695.504,1278.522h3.025v25.488h-3.025V1278.522z"/>
		<path d="M728.371,1301.022h-0.072c-0.527,0.961-1.361,1.771-2.502,2.431c-1.139,0.659-2.465,0.989-3.977,0.989
			c-1.178,0-2.281-0.222-3.312-0.666c-1.033-0.443-1.926-1.062-2.682-1.854s-1.35-1.729-1.783-2.809
			c-0.432-1.079-0.646-2.255-0.646-3.527s0.215-2.448,0.646-3.528c0.434-1.08,1.033-2.016,1.801-2.808s1.697-1.41,2.789-1.854
			c1.092-0.443,2.299-0.666,3.619-0.666c1.225,0,2.346,0.252,3.365,0.756c1.02,0.505,1.914,1.213,2.682,2.124h0.072v-12.815h2.809
			v27.216h-2.809V1301.022z M728.371,1295.586c0-0.888-0.139-1.71-0.414-2.466c-0.275-0.757-0.678-1.416-1.205-1.98
			c-0.529-0.563-1.158-1.008-1.891-1.332s-1.555-0.486-2.465-0.486c-0.914,0-1.734,0.162-2.467,0.486s-1.363,0.769-1.891,1.332
			c-0.527,0.564-0.93,1.224-1.205,1.98c-0.277,0.756-0.414,1.578-0.414,2.466s0.137,1.71,0.414,2.466
			c0.275,0.756,0.678,1.416,1.205,1.98c0.527,0.563,1.158,1.008,1.891,1.331c0.732,0.324,1.553,0.486,2.467,0.486
			c0.91,0,1.732-0.162,2.465-0.486c0.732-0.323,1.361-0.768,1.891-1.331c0.527-0.564,0.93-1.225,1.205-1.98
			S728.371,1296.474,728.371,1295.586z"/>
		<path d="M735.393,1295.586c0-1.319,0.227-2.521,0.684-3.601c0.455-1.079,1.08-2.01,1.871-2.79c0.793-0.779,1.74-1.386,2.844-1.817
			c1.104-0.433,2.305-0.648,3.602-0.648c1.295,0,2.494,0.216,3.6,0.648c1.104,0.432,2.051,1.038,2.844,1.817
			c0.791,0.78,1.416,1.711,1.871,2.79c0.457,1.08,0.686,2.281,0.686,3.601c0,1.32-0.229,2.52-0.686,3.6
			c-0.455,1.08-1.08,2.011-1.871,2.79c-0.793,0.78-1.74,1.386-2.844,1.818c-1.105,0.432-2.305,0.647-3.6,0.647
			c-1.297,0-2.498-0.216-3.602-0.647c-1.104-0.433-2.051-1.038-2.844-1.818c-0.791-0.779-1.416-1.71-1.871-2.79
			C735.619,1298.106,735.393,1296.907,735.393,1295.586z M738.416,1295.586c0,0.888,0.137,1.71,0.414,2.466
			c0.275,0.756,0.678,1.416,1.205,1.98c0.527,0.563,1.158,1.008,1.891,1.331c0.732,0.324,1.553,0.486,2.467,0.486
			c0.91,0,1.732-0.162,2.465-0.486c0.732-0.323,1.361-0.768,1.891-1.331c0.527-0.564,0.93-1.225,1.205-1.98s0.414-1.578,0.414-2.466
			s-0.139-1.71-0.414-2.466c-0.275-0.757-0.678-1.416-1.205-1.98c-0.529-0.563-1.158-1.008-1.891-1.332s-1.555-0.486-2.465-0.486
			c-0.914,0-1.734,0.162-2.467,0.486s-1.363,0.769-1.891,1.332c-0.527,0.564-0.93,1.224-1.205,1.98
			C738.553,1293.876,738.416,1294.699,738.416,1295.586z"/>
		<path d="M761.887,1294.614c0-0.671,0.043-1.224,0.127-1.655c0.084-0.433,0.221-0.822,0.414-1.17
			c0.191-0.348,0.443-0.69,0.756-1.026s0.707-0.743,1.188-1.224c0.361-0.384,0.727-0.762,1.098-1.135
			c0.373-0.371,0.709-0.761,1.008-1.17c0.301-0.407,0.547-0.84,0.738-1.296c0.193-0.455,0.289-0.972,0.289-1.548
			c0-1.152-0.336-2.094-1.008-2.826c-0.672-0.731-1.609-1.098-2.809-1.098c-1.225,0-2.215,0.36-2.971,1.08s-1.229,1.668-1.422,2.844
			l-3.24-0.36c0.168-0.983,0.475-1.859,0.918-2.628c0.445-0.768,1.002-1.409,1.676-1.926c0.67-0.516,1.439-0.912,2.303-1.188
			c0.865-0.276,1.787-0.414,2.771-0.414s1.902,0.138,2.754,0.414c0.854,0.275,1.598,0.684,2.232,1.224
			c0.637,0.54,1.135,1.212,1.494,2.016c0.361,0.805,0.541,1.723,0.541,2.755c0,0.792-0.115,1.506-0.342,2.142
			c-0.229,0.636-0.529,1.224-0.9,1.764c-0.373,0.54-0.811,1.057-1.314,1.548c-0.504,0.492-1.02,0.99-1.549,1.494
			c-0.383,0.36-0.689,0.673-0.918,0.937s-0.402,0.54-0.521,0.828s-0.197,0.606-0.234,0.954c-0.035,0.348-0.053,0.773-0.053,1.277
			v1.656h-3.025V1294.614z M763.4,1299.907c0.6,0,1.109,0.21,1.529,0.63s0.629,0.93,0.629,1.529c0,0.601-0.221,1.11-0.666,1.53
			c-0.443,0.42-0.941,0.63-1.492,0.63c-0.553,0-1.051-0.21-1.494-0.63c-0.445-0.42-0.666-0.93-0.666-1.53
			c0-0.6,0.209-1.109,0.629-1.529S762.799,1299.907,763.4,1299.907z"/>
	</g>
	<path display="inline" fill="none" stroke="#000000" stroke-miterlimit="10" d="M560.254,1358.125
		c17.07-16.11,40.087-25.987,65.412-25.987c25.324,0,48.342,9.877,65.412,25.987l-0.002,0.002l-29.965,31.759h0.004
		c-9.25-8.731-21.725-14.083-35.45-14.083c-13.724,0-26.198,5.352-35.448,14.082L560.254,1358.125z"/>
	<g display="inline">
		<rect x="64.482" y="42.32" fill="none" width="755.32" height="67.13"/>
		<path d="M91.507,48.367H80.274v30.24h-4.032v-30.24H65.011v-3.744h26.496V48.367z"/>
		<path d="M95.586,42.319h3.744v16.944h0.096c0.256-0.448,0.607-0.889,1.057-1.32c0.447-0.432,0.983-0.823,1.607-1.176
			c0.624-0.352,1.32-0.64,2.088-0.864c0.769-0.224,1.584-0.336,2.448-0.336c1.472,0,2.744,0.225,3.816,0.672
			c1.071,0.448,1.96,1.072,2.664,1.872c0.703,0.801,1.224,1.769,1.56,2.904s0.504,2.376,0.504,3.72v13.872h-3.744V65.119
			c0-1.888-0.416-3.375-1.248-4.464c-0.832-1.087-2.128-1.632-3.888-1.632c-1.217,0-2.264,0.208-3.144,0.624
			c-0.881,0.416-1.601,1.008-2.16,1.776c-0.561,0.768-0.977,1.68-1.248,2.735c-0.272,1.057-0.408,2.225-0.408,3.504v10.944h-3.744
			V42.319z"/>
		<path d="M142.339,74.527c-1.344,1.729-2.816,2.937-4.416,3.624c-1.601,0.688-3.456,1.032-5.568,1.032
			c-1.76,0-3.344-0.312-4.752-0.937s-2.601-1.464-3.576-2.52c-0.977-1.056-1.728-2.304-2.256-3.744s-0.792-2.976-0.792-4.608
			c0-1.728,0.288-3.319,0.864-4.775s1.375-2.704,2.399-3.744c1.024-1.039,2.24-1.848,3.648-2.424s2.943-0.864,4.608-0.864
			c1.567,0,3.007,0.264,4.319,0.792s2.44,1.296,3.385,2.304c0.943,1.009,1.671,2.24,2.184,3.696
			c0.512,1.457,0.768,3.112,0.768,4.968v1.2h-18.144c0.063,0.96,0.296,1.88,0.696,2.76c0.399,0.881,0.919,1.648,1.56,2.305
			c0.64,0.656,1.392,1.176,2.256,1.56s1.808,0.576,2.832,0.576c1.632,0,3.008-0.288,4.128-0.864s2.128-1.424,3.024-2.544
			L142.339,74.527z M139.123,65.359c-0.064-1.92-0.688-3.456-1.872-4.608c-1.185-1.151-2.816-1.728-4.896-1.728
			s-3.761,0.576-5.04,1.728c-1.28,1.152-2.048,2.688-2.304,4.608H139.123z"/>
		<path d="M148.962,61.471c0-1.024-0.032-1.984-0.096-2.88c-0.064-0.896-0.096-1.712-0.096-2.448h3.552
			c0,0.608,0.016,1.217,0.048,1.824c0.031,0.607,0.048,1.231,0.048,1.872h0.096c0.256-0.544,0.616-1.072,1.08-1.584
			s1.016-0.968,1.656-1.368c0.64-0.4,1.36-0.721,2.16-0.96c0.8-0.24,1.663-0.36,2.592-0.36c0.256,0,0.512,0.017,0.769,0.048
			c0.256,0.032,0.511,0.096,0.768,0.192l-0.24,3.792c-0.641-0.192-1.312-0.288-2.016-0.288c-2.304,0-3.977,0.744-5.016,2.231
			c-1.041,1.488-1.561,3.528-1.561,6.12v10.944h-3.744V61.471z"/>
		<path d="M185.059,74.527c-1.344,1.729-2.816,2.937-4.416,3.624c-1.601,0.688-3.456,1.032-5.568,1.032
			c-1.76,0-3.344-0.312-4.752-0.937s-2.601-1.464-3.576-2.52c-0.977-1.056-1.728-2.304-2.256-3.744s-0.792-2.976-0.792-4.608
			c0-1.728,0.288-3.319,0.864-4.775s1.375-2.704,2.399-3.744c1.024-1.039,2.24-1.848,3.648-2.424s2.943-0.864,4.608-0.864
			c1.567,0,3.007,0.264,4.319,0.792s2.44,1.296,3.385,2.304c0.943,1.009,1.671,2.24,2.184,3.696
			c0.512,1.457,0.768,3.112,0.768,4.968v1.2H167.73c0.063,0.96,0.296,1.88,0.696,2.76c0.399,0.881,0.919,1.648,1.56,2.305
			c0.64,0.656,1.392,1.176,2.256,1.56s1.808,0.576,2.832,0.576c1.632,0,3.008-0.288,4.128-0.864s2.128-1.424,3.024-2.544
			L185.059,74.527z M181.843,65.359c-0.064-1.92-0.688-3.456-1.872-4.608c-1.185-1.151-2.816-1.728-4.896-1.728
			s-3.761,0.576-5.04,1.728c-1.28,1.152-2.048,2.688-2.304,4.608H181.843z"/>
		<path d="M229.123,78.607h-3.696l-6.384-17.28h-0.097l-5.664,17.28h-3.84l-7.296-22.464h4.128l5.136,17.28h0.097l5.808-17.28h3.937
			l5.903,17.28h0.097l5.088-17.28h4.032L229.123,78.607z"/>
		<path d="M240.067,47.359c0-0.735,0.264-1.375,0.792-1.92c0.527-0.544,1.176-0.816,1.943-0.816c0.769,0,1.416,0.272,1.944,0.816
			c0.528,0.545,0.792,1.185,0.792,1.92c0,0.801-0.257,1.457-0.769,1.968c-0.512,0.513-1.168,0.769-1.968,0.769
			s-1.456-0.256-1.968-0.769C240.322,48.816,240.067,48.16,240.067,47.359z M240.931,56.143h3.744v22.464h-3.744V56.143z"/>
		<path d="M252.45,42.319h3.744v36.288h-3.744V42.319z"/>
		<path d="M264.017,42.319h3.744v36.288h-3.744V42.319z"/>
		<path d="M288.256,59.023c1.152-1.184,2.521-2.056,4.104-2.616c1.584-0.56,3.191-0.84,4.824-0.84c3.327,0,5.728,0.784,7.199,2.352
			c1.472,1.568,2.208,3.953,2.208,7.152v9.648c0,0.641,0.032,1.304,0.097,1.991c0.063,0.689,0.144,1.32,0.239,1.896h-3.6
			c-0.128-0.512-0.2-1.08-0.216-1.704c-0.017-0.624-0.024-1.176-0.024-1.656h-0.096c-0.736,1.152-1.721,2.097-2.952,2.832
			c-1.232,0.736-2.712,1.104-4.439,1.104c-1.152,0-2.232-0.145-3.24-0.433c-1.008-0.287-1.889-0.711-2.641-1.271
			c-0.752-0.56-1.352-1.256-1.8-2.088s-0.672-1.792-0.672-2.88c0-1.855,0.48-3.312,1.44-4.368s2.151-1.84,3.576-2.353
			c1.423-0.511,2.959-0.831,4.607-0.96c1.647-0.127,3.16-0.191,4.536-0.191h1.44v-0.672c0-1.633-0.488-2.864-1.465-3.696
			s-2.344-1.248-4.104-1.248c-1.217,0-2.408,0.2-3.576,0.6c-1.168,0.4-2.2,1.017-3.096,1.849L288.256,59.023z M299.104,67.807
			c-2.4,0-4.305,0.336-5.712,1.008c-1.409,0.672-2.112,1.776-2.112,3.312c0,1.409,0.472,2.409,1.416,3
			c0.943,0.593,2.119,0.889,3.528,0.889c1.087,0,2.04-0.184,2.855-0.552c0.816-0.368,1.496-0.856,2.04-1.465
			c0.544-0.607,0.96-1.319,1.248-2.136c0.288-0.815,0.448-1.688,0.48-2.616v-1.439H299.104z"/>
		<path d="M313.792,42.319h3.744v36.288h-3.744V42.319z"/>
		<path d="M349.072,78.607h-3.696l-6.384-17.28h-0.097l-5.664,17.28h-3.84l-7.296-22.464h4.128l5.136,17.28h0.097l5.808-17.28h3.937
			l5.903,17.28h0.097l5.088-17.28h4.032L349.072,78.607z"/>
		<path d="M360.256,59.023c1.152-1.184,2.521-2.056,4.104-2.616c1.584-0.56,3.191-0.84,4.824-0.84c3.327,0,5.728,0.784,7.199,2.352
			c1.472,1.568,2.208,3.953,2.208,7.152v9.648c0,0.641,0.032,1.304,0.097,1.991c0.063,0.689,0.144,1.32,0.239,1.896h-3.6
			c-0.128-0.512-0.2-1.08-0.216-1.704c-0.017-0.624-0.024-1.176-0.024-1.656h-0.096c-0.736,1.152-1.721,2.097-2.952,2.832
			c-1.232,0.736-2.712,1.104-4.439,1.104c-1.152,0-2.232-0.145-3.24-0.433c-1.008-0.287-1.889-0.711-2.641-1.271
			c-0.752-0.56-1.352-1.256-1.8-2.088s-0.672-1.792-0.672-2.88c0-1.855,0.48-3.312,1.44-4.368s2.151-1.84,3.576-2.353
			c1.423-0.511,2.959-0.831,4.607-0.96c1.647-0.127,3.16-0.191,4.536-0.191h1.44v-0.672c0-1.633-0.488-2.864-1.465-3.696
			s-2.344-1.248-4.104-1.248c-1.217,0-2.408,0.2-3.576,0.6c-1.168,0.4-2.2,1.017-3.096,1.849L360.256,59.023z M371.104,67.807
			c-2.4,0-4.305,0.336-5.712,1.008c-1.409,0.672-2.112,1.776-2.112,3.312c0,1.409,0.472,2.409,1.416,3
			c0.943,0.593,2.119,0.889,3.528,0.889c1.087,0,2.04-0.184,2.855-0.552c0.816-0.368,1.496-0.856,2.04-1.465
			c0.544-0.607,0.96-1.319,1.248-2.136c0.288-0.815,0.448-1.688,0.48-2.616v-1.439H371.104z"/>
		<path d="M393.712,83.743c-0.384,0.96-0.775,1.832-1.176,2.616s-0.88,1.456-1.439,2.016c-0.561,0.56-1.232,0.992-2.017,1.297
			c-0.784,0.304-1.736,0.455-2.855,0.455c-0.545,0-1.112-0.032-1.704-0.096c-0.593-0.064-1.145-0.224-1.656-0.479l0.48-3.265
			c0.384,0.16,0.783,0.265,1.199,0.312s0.896,0.072,1.44,0.072c1.216,0,2.112-0.337,2.688-1.009
			c0.576-0.672,1.072-1.568,1.488-2.688l1.536-4.225l-9.312-22.607h4.367l6.96,17.616h0.097l6.672-17.616h4.08L393.712,83.743z"/>
		<path d="M409.073,72.703c0.735,0.929,1.543,1.664,2.424,2.208c0.88,0.545,1.992,0.816,3.336,0.816
			c0.576,0,1.159-0.063,1.752-0.192c0.592-0.127,1.128-0.336,1.608-0.624c0.479-0.288,0.863-0.647,1.151-1.08
			c0.288-0.432,0.433-0.951,0.433-1.56c0-0.607-0.137-1.104-0.408-1.488c-0.272-0.384-0.633-0.712-1.08-0.983
			c-0.448-0.271-0.96-0.488-1.536-0.648s-1.168-0.304-1.776-0.432c-1.056-0.224-2.063-0.48-3.023-0.769s-1.8-0.663-2.521-1.128
			c-0.72-0.463-1.296-1.063-1.728-1.8c-0.432-0.735-0.648-1.68-0.648-2.832c0-1.088,0.24-2.048,0.721-2.88
			c0.479-0.832,1.119-1.52,1.92-2.064c0.799-0.543,1.695-0.96,2.688-1.248s2.017-0.432,3.072-0.432c1.6,0,3.079,0.32,4.44,0.96
			c1.359,0.641,2.424,1.68,3.191,3.12l-3.12,2.063c-0.479-0.799-1.112-1.447-1.896-1.943c-0.785-0.496-1.736-0.744-2.856-0.744
			c-0.512,0-1.032,0.064-1.56,0.192c-0.528,0.128-1.001,0.32-1.416,0.575c-0.416,0.257-0.761,0.585-1.032,0.984
			c-0.272,0.4-0.408,0.856-0.408,1.368c0,0.479,0.151,0.888,0.456,1.224c0.304,0.336,0.72,0.633,1.248,0.889
			s1.136,0.479,1.824,0.672c0.688,0.191,1.399,0.353,2.136,0.479c0.991,0.192,1.936,0.44,2.832,0.744
			c0.896,0.305,1.68,0.713,2.353,1.224c0.672,0.513,1.199,1.152,1.584,1.921c0.384,0.768,0.575,1.712,0.575,2.831
			c0,1.28-0.256,2.369-0.768,3.265c-0.513,0.896-1.192,1.624-2.04,2.184c-0.849,0.561-1.809,0.969-2.88,1.225
			c-1.072,0.255-2.168,0.384-3.288,0.384c-1.92,0-3.576-0.297-4.968-0.888c-1.393-0.592-2.648-1.688-3.769-3.288L409.073,72.703z"/>
		<path d="M442.192,42.319h3.743v17.088h0.097c1.023-1.216,2.215-2.16,3.576-2.832c1.359-0.672,2.855-1.008,4.487-1.008
			c1.76,0,3.368,0.296,4.824,0.888c1.456,0.593,2.695,1.416,3.72,2.473c1.024,1.056,1.824,2.304,2.4,3.744
			c0.576,1.439,0.864,3.008,0.864,4.703c0,1.697-0.288,3.265-0.864,4.704c-0.576,1.44-1.368,2.688-2.376,3.744
			c-1.008,1.057-2.2,1.881-3.576,2.473c-1.376,0.591-2.849,0.888-4.416,0.888c-2.016,0-3.784-0.44-5.304-1.32
			c-1.521-0.88-2.633-1.96-3.336-3.24h-0.097v3.984h-3.743V42.319z M445.936,67.375c0,1.185,0.185,2.28,0.553,3.288
			c0.367,1.009,0.903,1.889,1.607,2.641s1.544,1.344,2.521,1.775c0.976,0.433,2.071,0.648,3.288,0.648
			c1.216,0,2.312-0.216,3.288-0.648c0.976-0.432,1.815-1.023,2.52-1.775s1.24-1.632,1.608-2.641
			c0.367-1.008,0.552-2.104,0.552-3.288c0-1.183-0.185-2.279-0.552-3.287c-0.368-1.009-0.904-1.889-1.608-2.641
			c-0.704-0.751-1.544-1.344-2.52-1.775c-0.977-0.433-2.072-0.648-3.288-0.648c-1.217,0-2.312,0.216-3.288,0.648
			c-0.977,0.432-1.816,1.024-2.521,1.775c-0.704,0.752-1.24,1.632-1.607,2.641C446.12,65.095,445.936,66.192,445.936,67.375z"/>
		<path d="M491.776,74.527c-1.344,1.729-2.816,2.937-4.416,3.624c-1.601,0.688-3.456,1.032-5.568,1.032
			c-1.76,0-3.344-0.312-4.752-0.937s-2.601-1.464-3.576-2.52c-0.977-1.056-1.728-2.304-2.256-3.744s-0.792-2.976-0.792-4.608
			c0-1.728,0.288-3.319,0.864-4.775s1.375-2.704,2.399-3.744c1.024-1.039,2.24-1.848,3.648-2.424s2.943-0.864,4.608-0.864
			c1.567,0,3.007,0.264,4.319,0.792s2.44,1.296,3.385,2.304c0.943,1.009,1.671,2.24,2.184,3.696
			c0.512,1.457,0.768,3.112,0.768,4.968v1.2h-18.144c0.063,0.96,0.296,1.88,0.696,2.76c0.399,0.881,0.919,1.648,1.56,2.305
			c0.64,0.656,1.392,1.176,2.256,1.56s1.808,0.576,2.832,0.576c1.632,0,3.008-0.288,4.128-0.864s2.128-1.424,3.024-2.544
			L491.776,74.527z M488.561,65.359c-0.064-1.92-0.688-3.456-1.872-4.608c-1.185-1.151-2.816-1.728-4.896-1.728
			s-3.761,0.576-5.04,1.728c-1.28,1.152-2.048,2.688-2.304,4.608H488.561z"/>
		<path d="M511.455,59.023c1.152-1.184,2.521-2.056,4.104-2.616c1.584-0.56,3.191-0.84,4.824-0.84c3.327,0,5.728,0.784,7.199,2.352
			c1.472,1.568,2.208,3.953,2.208,7.152v9.648c0,0.641,0.032,1.304,0.097,1.991c0.063,0.689,0.144,1.32,0.239,1.896h-3.6
			c-0.128-0.512-0.2-1.08-0.216-1.704c-0.017-0.624-0.024-1.176-0.024-1.656h-0.096c-0.736,1.152-1.721,2.097-2.952,2.832
			c-1.232,0.736-2.712,1.104-4.439,1.104c-1.152,0-2.232-0.145-3.24-0.433c-1.008-0.287-1.889-0.711-2.641-1.271
			c-0.752-0.56-1.352-1.256-1.8-2.088s-0.672-1.792-0.672-2.88c0-1.855,0.48-3.312,1.44-4.368s2.151-1.84,3.576-2.353
			c1.423-0.511,2.959-0.831,4.607-0.96c1.647-0.127,3.16-0.191,4.536-0.191h1.44v-0.672c0-1.633-0.488-2.864-1.465-3.696
			s-2.344-1.248-4.104-1.248c-1.217,0-2.408,0.2-3.576,0.6c-1.168,0.4-2.2,1.017-3.096,1.849L511.455,59.023z M522.304,67.807
			c-2.4,0-4.305,0.336-5.712,1.008c-1.409,0.672-2.112,1.776-2.112,3.312c0,1.409,0.472,2.409,1.416,3
			c0.943,0.593,2.119,0.889,3.528,0.889c1.087,0,2.04-0.184,2.855-0.552c0.816-0.368,1.496-0.856,2.04-1.465
			c0.544-0.607,0.96-1.319,1.248-2.136c0.288-0.815,0.448-1.688,0.48-2.616v-1.439H522.304z"/>
		<path d="M536.655,61.471c0-1.024-0.032-1.984-0.096-2.88c-0.064-0.896-0.096-1.712-0.096-2.448h3.552
			c0,0.608,0.016,1.217,0.048,1.824c0.031,0.607,0.048,1.231,0.048,1.872h0.096c0.256-0.544,0.616-1.072,1.08-1.584
			s1.016-0.968,1.656-1.368c0.64-0.4,1.36-0.721,2.16-0.96c0.8-0.24,1.663-0.36,2.592-0.36c1.472,0,2.744,0.225,3.816,0.672
			c1.071,0.448,1.96,1.072,2.664,1.872c0.703,0.801,1.224,1.769,1.56,2.904s0.504,2.376,0.504,3.72v13.872h-3.744V65.119
			c0-1.888-0.416-3.375-1.248-4.464c-0.832-1.087-2.128-1.632-3.888-1.632c-1.217,0-2.264,0.208-3.144,0.624
			c-0.881,0.416-1.601,1.008-2.16,1.776c-0.561,0.768-0.977,1.68-1.248,2.735c-0.272,1.057-0.408,2.225-0.408,3.504v10.944h-3.744
			V61.471z"/>
		<path d="M562.047,67.375c0-1.759,0.304-3.359,0.912-4.8c0.607-1.439,1.44-2.68,2.496-3.72c1.056-1.039,2.319-1.848,3.792-2.424
			c1.472-0.576,3.072-0.864,4.8-0.864c1.729,0,3.328,0.288,4.8,0.864s2.736,1.385,3.792,2.424c1.057,1.04,1.888,2.28,2.496,3.72
			c0.607,1.44,0.912,3.041,0.912,4.8c0,1.761-0.305,3.36-0.912,4.801c-0.608,1.439-1.439,2.68-2.496,3.72
			c-1.056,1.04-2.32,1.848-3.792,2.424s-3.071,0.864-4.8,0.864c-1.728,0-3.328-0.288-4.8-0.864
			c-1.473-0.576-2.736-1.384-3.792-2.424s-1.889-2.28-2.496-3.72C562.351,70.735,562.047,69.135,562.047,67.375z M566.079,67.375
			c0,1.185,0.184,2.28,0.552,3.288c0.367,1.009,0.904,1.889,1.608,2.641c0.703,0.752,1.543,1.344,2.52,1.775
			c0.976,0.433,2.071,0.648,3.288,0.648c1.216,0,2.312-0.216,3.288-0.648c0.976-0.432,1.815-1.023,2.521-1.775
			c0.703-0.752,1.239-1.632,1.607-2.641c0.367-1.008,0.552-2.104,0.552-3.288c0-1.183-0.185-2.279-0.552-3.287
			c-0.368-1.009-0.904-1.889-1.607-2.641c-0.705-0.751-1.545-1.344-2.521-1.775c-0.977-0.433-2.072-0.648-3.288-0.648
			c-1.217,0-2.312,0.216-3.288,0.648c-0.977,0.432-1.816,1.024-2.52,1.775c-0.704,0.752-1.241,1.632-1.608,2.641
			C566.263,65.095,566.079,66.192,566.079,67.375z"/>
		<path d="M604.143,59.311h-6.624v11.231c0,0.737,0.016,1.416,0.048,2.04s0.16,1.169,0.385,1.633
			c0.223,0.464,0.559,0.832,1.008,1.104c0.447,0.272,1.087,0.408,1.92,0.408c0.544,0,1.104-0.063,1.68-0.192
			c0.576-0.127,1.12-0.319,1.632-0.576l0.145,3.408c-0.641,0.288-1.353,0.496-2.136,0.624c-0.785,0.128-1.529,0.192-2.232,0.192
			c-1.344,0-2.417-0.177-3.216-0.528c-0.801-0.352-1.425-0.848-1.872-1.488c-0.448-0.64-0.744-1.432-0.888-2.376
			c-0.145-0.943-0.217-1.991-0.217-3.144V59.311h-4.896v-3.168h4.896v-6.384h3.744v6.384h6.624V59.311z"/>
		<path d="M608.798,42.319h3.744v16.944h0.096c0.256-0.448,0.607-0.889,1.057-1.32c0.447-0.432,0.983-0.823,1.607-1.176
			c0.624-0.352,1.32-0.64,2.088-0.864c0.769-0.224,1.584-0.336,2.448-0.336c1.472,0,2.744,0.225,3.816,0.672
			c1.071,0.448,1.96,1.072,2.664,1.872c0.703,0.801,1.224,1.769,1.56,2.904s0.504,2.376,0.504,3.72v13.872h-3.744V65.119
			c0-1.888-0.416-3.375-1.248-4.464c-0.832-1.087-2.128-1.632-3.888-1.632c-1.217,0-2.264,0.208-3.144,0.624
			c-0.881,0.416-1.601,1.008-2.16,1.776c-0.561,0.768-0.977,1.68-1.248,2.735c-0.272,1.057-0.408,2.225-0.408,3.504v10.944h-3.744
			V42.319z"/>
		<path d="M655.551,74.527c-1.344,1.729-2.816,2.937-4.416,3.624c-1.601,0.688-3.456,1.032-5.568,1.032
			c-1.76,0-3.344-0.312-4.752-0.937s-2.601-1.464-3.576-2.52c-0.977-1.056-1.728-2.304-2.256-3.744s-0.792-2.976-0.792-4.608
			c0-1.728,0.288-3.319,0.864-4.775s1.375-2.704,2.399-3.744c1.024-1.039,2.24-1.848,3.648-2.424s2.943-0.864,4.608-0.864
			c1.567,0,3.007,0.264,4.319,0.792s2.44,1.296,3.385,2.304c0.943,1.009,1.671,2.24,2.184,3.696
			c0.512,1.457,0.768,3.112,0.768,4.968v1.2h-18.144c0.063,0.96,0.296,1.88,0.696,2.76c0.399,0.881,0.919,1.648,1.56,2.305
			c0.64,0.656,1.392,1.176,2.256,1.56s1.808,0.576,2.832,0.576c1.632,0,3.008-0.288,4.128-0.864s2.128-1.424,3.024-2.544
			L655.551,74.527z M652.335,65.359c-0.064-1.92-0.688-3.456-1.872-4.608c-1.185-1.151-2.816-1.728-4.896-1.728
			s-3.761,0.576-5.04,1.728c-1.28,1.152-2.048,2.688-2.304,4.608H652.335z"/>
		<path d="M662.174,61.471c0-1.024-0.032-1.984-0.096-2.88c-0.064-0.896-0.096-1.712-0.096-2.448h3.552
			c0,0.608,0.016,1.217,0.048,1.824c0.031,0.607,0.048,1.231,0.048,1.872h0.096c0.256-0.544,0.616-1.072,1.08-1.584
			s1.016-0.968,1.656-1.368c0.64-0.4,1.36-0.721,2.16-0.96c0.8-0.24,1.663-0.36,2.592-0.36c0.256,0,0.512,0.017,0.769,0.048
			c0.256,0.032,0.511,0.096,0.768,0.192l-0.24,3.792c-0.641-0.192-1.312-0.288-2.016-0.288c-2.304,0-3.977,0.744-5.016,2.231
			c-1.041,1.488-1.561,3.528-1.561,6.12v10.944h-3.744V61.471z"/>
		<path d="M704.701,59.311h-6.624v11.231c0,0.737,0.016,1.416,0.048,2.04s0.16,1.169,0.385,1.633
			c0.223,0.464,0.559,0.832,1.008,1.104c0.447,0.272,1.087,0.408,1.92,0.408c0.544,0,1.104-0.063,1.68-0.192
			c0.576-0.127,1.12-0.319,1.632-0.576l0.145,3.408c-0.641,0.288-1.353,0.496-2.136,0.624c-0.785,0.128-1.529,0.192-2.232,0.192
			c-1.344,0-2.417-0.177-3.216-0.528c-0.801-0.352-1.425-0.848-1.872-1.488c-0.448-0.64-0.744-1.432-0.888-2.376
			c-0.145-0.943-0.217-1.991-0.217-3.144V59.311h-4.896v-3.168h4.896v-6.384h3.744v6.384h6.624V59.311z"/>
		<path d="M709.309,61.471c0-1.024-0.032-1.984-0.096-2.88c-0.064-0.896-0.096-1.712-0.096-2.448h3.552
			c0,0.608,0.016,1.217,0.048,1.824c0.031,0.607,0.048,1.231,0.048,1.872h0.096c0.256-0.544,0.616-1.072,1.08-1.584
			s1.016-0.968,1.656-1.368c0.64-0.4,1.36-0.721,2.16-0.96c0.8-0.24,1.663-0.36,2.592-0.36c0.256,0,0.512,0.017,0.769,0.048
			c0.256,0.032,0.511,0.096,0.768,0.192l-0.24,3.792c-0.641-0.192-1.312-0.288-2.016-0.288c-2.304,0-3.977,0.744-5.016,2.231
			c-1.041,1.488-1.561,3.528-1.561,6.12v10.944h-3.744V61.471z"/>
		<path d="M725.916,59.023c1.152-1.184,2.521-2.056,4.104-2.616c1.584-0.56,3.191-0.84,4.824-0.84c3.327,0,5.728,0.784,7.199,2.352
			c1.472,1.568,2.208,3.953,2.208,7.152v9.648c0,0.641,0.032,1.304,0.097,1.991c0.063,0.689,0.144,1.32,0.239,1.896h-3.6
			c-0.128-0.512-0.2-1.08-0.216-1.704c-0.017-0.624-0.024-1.176-0.024-1.656h-0.096c-0.736,1.152-1.721,2.097-2.952,2.832
			c-1.232,0.736-2.712,1.104-4.439,1.104c-1.152,0-2.232-0.145-3.24-0.433c-1.008-0.287-1.889-0.711-2.641-1.271
			c-0.752-0.56-1.352-1.256-1.8-2.088s-0.672-1.792-0.672-2.88c0-1.855,0.48-3.312,1.44-4.368s2.151-1.84,3.576-2.353
			c1.423-0.511,2.959-0.831,4.607-0.96c1.647-0.127,3.16-0.191,4.536-0.191h1.44v-0.672c0-1.633-0.488-2.864-1.465-3.696
			s-2.344-1.248-4.104-1.248c-1.217,0-2.408,0.2-3.576,0.6c-1.168,0.4-2.2,1.017-3.096,1.849L725.916,59.023z M736.765,67.807
			c-2.4,0-4.305,0.336-5.712,1.008c-1.409,0.672-2.112,1.776-2.112,3.312c0,1.409,0.472,2.409,1.416,3
			c0.943,0.593,2.119,0.889,3.528,0.889c1.087,0,2.04-0.184,2.855-0.552c0.816-0.368,1.496-0.856,2.04-1.465
			c0.544-0.607,0.96-1.319,1.248-2.136c0.288-0.815,0.448-1.688,0.48-2.616v-1.439H736.765z"/>
		<path d="M750.589,47.359c0-0.735,0.264-1.375,0.792-1.92c0.527-0.544,1.176-0.816,1.943-0.816c0.769,0,1.416,0.272,1.944,0.816
			c0.528,0.545,0.792,1.185,0.792,1.92c0,0.801-0.257,1.457-0.769,1.968c-0.512,0.513-1.168,0.769-1.968,0.769
			s-1.456-0.256-1.968-0.769C750.844,48.816,750.589,48.16,750.589,47.359z M751.452,56.143h3.744v22.464h-3.744V56.143z"/>
		<path d="M762.636,61.471c0-1.024-0.032-1.984-0.096-2.88c-0.064-0.896-0.096-1.712-0.096-2.448h3.552
			c0,0.608,0.016,1.217,0.048,1.824c0.031,0.607,0.048,1.231,0.048,1.872h0.096c0.256-0.544,0.616-1.072,1.08-1.584
			s1.016-0.968,1.656-1.368c0.64-0.4,1.36-0.721,2.16-0.96c0.8-0.24,1.663-0.36,2.592-0.36c1.472,0,2.744,0.225,3.816,0.672
			c1.071,0.448,1.96,1.072,2.664,1.872c0.703,0.801,1.224,1.769,1.56,2.904s0.504,2.376,0.504,3.72v13.872h-3.744V65.119
			c0-1.888-0.416-3.375-1.248-4.464c-0.832-1.087-2.128-1.632-3.888-1.632c-1.217,0-2.264,0.208-3.144,0.624
			c-0.881,0.416-1.601,1.008-2.16,1.776c-0.561,0.768-0.977,1.68-1.248,2.735c-0.272,1.057-0.408,2.225-0.408,3.504v10.944h-3.744
			V61.471z"/>
		<path d="M792.444,73.135c0.8,0,1.479,0.28,2.04,0.84c0.56,0.561,0.84,1.24,0.84,2.04s-0.296,1.48-0.888,2.04
			c-0.593,0.56-1.256,0.84-1.992,0.84s-1.4-0.28-1.992-0.84s-0.888-1.24-0.888-2.04s0.279-1.479,0.84-2.04
			C790.964,73.416,791.645,73.135,792.444,73.135z"/>
	</g>
</g>
<g id="Engrave">
	<polygon fill="#7DBB4D" points="349.916,1087.417 393.648,1014.283 431.521,1026.829 464.546,979.939 343.467,997.876 
		305.675,1050.155 	"/>
	<path fill="#7DBB4D" d="M392.523,946.728l46.459-92.991l92.841,54.118l-10.977,20.883l33.31,25.859
		c0,0-21.405,39.553-22.333,43.281S454.92,976.8,454.92,976.8l-23.778,0.558L392.523,946.728z"/>
	<polygon fill="#7DBB4D" points="554.156,694.017 565.66,670.158 537.553,653.293 520.849,673.655 	"/>
	<polygon fill="#7DBB4D" points="290.076,757.992 342.209,682.842 382.323,712.545 333.533,787.333 	"/>
	<polygon fill="#7DBB4D" points="278.271,601.703 311.999,594.114 343.467,606.74 308.944,658.212 	"/>
	<polygon fill="#7DBB4D" points="187.207,654.158 282.557,633.237 286.7,654.158 221.988,754.797 207.373,754.797 202.06,717.224 
		195.006,717.224 	"/>
	<polygon fill="#7DBB4D" points="87.289,1055.217 109.673,1063.896 125.038,1003.779 113.428,997.876 	"/>
	<polygon fill="#7DBB4D" points="311.999,285.874 330.128,259.381 427.047,327.258 410.878,350.671 	"/>
	<polyline fill="#7DBB4D" points="630.801,481.968 649.226,451.513 577.979,411.069 563.672,446.519 630.801,481.968 	"/>
	<polyline fill="#7DBB4D" points="626.873,488.657 638.877,497.022 647.599,488.657 689.385,510.816 662.64,562.364 
		603.103,529.609 626.873,488.657 	"/>
	<polygon fill="#7DBB4D" points="285.438,285.803 328.441,316.612 317.059,330.782 276.163,301.177 	"/>
</g>
<g id="Mark">
	<line fill="none" stroke="#1E1E1C" x1="131.135" y1="1197.719" x2="196.182" y2="1207.346"/>
	<polyline fill="none" stroke="#1E1E1C" points="115.957,1226.101 173.294,1102.436 144.626,988.391 	"/>
	<line fill="none" stroke="#1E1E1C" x1="276.585" y1="1052.885" x2="173.294" y2="1102.436"/>
	<polyline fill="none" stroke="#1E1E1C" points="144.626,1168.205 169.922,1182.255 185.099,1171.574 219.771,1080.137 	"/>
	<path fill="none" stroke="#1E1E1C" d="M247.119,1067.018c0,0-16.304,53.866-27.348,56.777l-15.167-3.656"/>
	<line fill="none" stroke="#1E1E1C" x1="165.338" y1="1070.783" x2="204.604" y2="1087.417"/>
	<line fill="none" stroke="#1E1E1C" x1="110.786" y1="1187.542" x2="151.134" y2="1014.283"/>
	<line fill="none" stroke="#1E1E1C" x1="81.78" y1="1173.04" x2="125.038" y2="1003.779"/>
	<line fill="none" stroke="#1E1E1C" x1="87.289" y1="1055.217" x2="135.07" y2="1073.741"/>
	<line fill="none" stroke="#1E1E1C" x1="274.344" y1="1114.672" x2="384.655" y2="1187.542"/>
	<line fill="none" stroke="#1E1E1C" x1="343.467" y1="1102.436" x2="276.585" y2="1201.511"/>
	<polyline fill="none" stroke="#1E1E1C" points="241.935,1177.758 310.026,1226.101 357.619,1169.683 	"/>
	<line fill="none" stroke="#1E1E1C" x1="296.482" y1="1129.296" x2="256.518" y2="1187.542"/>
	<line fill="none" stroke="#1E1E1C" x1="251.993" y1="1158.419" x2="268.161" y2="1170.572"/>
	<line fill="none" stroke="#1E1E1C" x1="178.354" y1="1026.124" x2="191.454" y2="1005.775"/>
	<line fill="none" stroke="#1E1E1C" x1="327.572" y1="1205.302" x2="354.58" y2="1221.606"/>
	<polyline fill="none" stroke="#1E1E1C" points="527.521,901.756 550.525,870.591 560.598,852.848 	"/>
	<path fill="none" stroke="#1E1E1C" d="M593.564,834.206l-9.357,16.393c-11.873,2.25-22.133,19.489-26.421,26.93l3.587,4.015
		c0,0,3.162,2.345,5.691,0s8.609-11.198,8.609-11.198l8.676-1.266c0,0,4.427-3.372,4.638-9.695c0.211-6.324-4.78-8.785-4.78-8.785"
		/>
	<polyline fill="none" stroke="#1E1E1C" points="550.525,870.591 551.465,876.458 557.786,877.528 	"/>
	<polyline fill="none" stroke="#1E1E1C" points="575.674,741.3 602.057,756.935 614.795,735.226 	"/>
	<polyline fill="none" stroke="#1E1E1C" points="591.517,787.922 600.37,772.745 600.37,755.937 	"/>
	<line fill="none" stroke="#1E1E1C" x1="625.666" y1="786.658" x2="600.37" y2="772.745"/>
	<line fill="none" stroke="#1E1E1C" x1="215.032" y1="577.532" x2="269.168" y2="565.958"/>
	<polyline fill="none" stroke="#1E1E1C" points="431.449,359.381 431.449,392.592 435.948,398.776 460.746,407.643 	"/>
	<path fill="none" stroke="#1E1E1C" d="M431.449,392.592l-14.473,9.557c0,0-3.795,2.557,0,5.494c3.794,2.938,6.393,0,6.393,0
		l12.579-8.867"/>
	<polyline fill="none" stroke="#1E1E1C" points="624.502,221.891 539.239,164.805 351.967,437.549 	"/>
	<line fill="none" stroke="#1E1E1C" x1="602.062" y1="273.112" x2="511.471" y2="205.248"/>
	<polyline fill="none" stroke="#1E1E1C" points="546.156,399.697 473.049,374.04 534.348,266.611 	"/>
	<line fill="none" stroke="#1E1E1C" x1="573.966" y1="337.167" x2="509.603" y2="311.97"/>
	<line fill="none" stroke="#1E1E1C" x1="559.574" y1="368.572" x2="490.921" y2="342.718"/>
	<polyline fill="none" stroke="#1E1E1C" points="170.343,536.776 255.505,512.323 326.333,519.069 397.161,526.658 482.844,573.034 
		701.554,699.512 	"/>
	<polyline fill="none" stroke="#1E1E1C" points="178.775,624.468 278.271,601.703 311.999,594.114 343.467,606.74 451.969,646.391 
		684.268,774.431 	"/>
	<polyline fill="none" stroke="#1E1E1C" points="597.839,839.482 418.241,739.142 307.783,657.352 278.271,601.702 255.505,512.323 
		231.501,406.051 311.999,285.874 422.457,124.455 	"/>
	<polyline fill="none" stroke="#1E1E1C" points="257.382,735.087 387.043,823.461 544.719,915.373 	"/>
	<polyline fill="none" stroke="#1E1E1C" points="356.992,868.972 246.651,806.472 187.207,778.772 	"/>
	<polyline fill="none" stroke="#1E1E1C" points="354.355,877.528 272.369,831.893 187.207,786.361 	"/>
	<polyline fill="none" stroke="#1E1E1C" points="269.123,1070.783 178.354,1026.124 113.428,997.876 	"/>
	<line fill="none" stroke="#1E1E1C" x1="230.773" y1="1146.112" x2="131.135" y2="1091.471"/>
	<polyline fill="none" stroke="#1E1E1C" points="202.046,1197.892 131.135,1197.719 58.62,1161.456 	"/>
	<line fill="none" stroke="#1E1E1C" x1="709.46" y1="485.706" x2="577.979" y2="411.069"/>
	<polyline fill="none" stroke="#1E1E1C" points="694.387,356.631 694.387,373.679 611.217,320.455 	"/>
	<polyline fill="none" stroke="#1E1E1C" points="187.207,834.001 254.662,739.142 347.413,600.859 397.161,526.658 441.162,461.15 
		473.049,374.04 410.066,351.846 	"/>
	<line fill="none" stroke="#1E1E1C" x1="338.981" y1="434.155" x2="311.999" y2="594.114"/>
	<polyline fill="none" stroke="#1E1E1C" points="290.076,514.133 290.076,421.368 355.684,316.612 	"/>
	<line fill="none" stroke="#1E1E1C" x1="427.047" y1="327.258" x2="330.128" y2="259.381"/>
	<line fill="none" stroke="#1E1E1C" x1="458.456" y1="211.424" x2="397.079" y2="306.271"/>
	<polyline fill="none" stroke="#1E1E1C" points="668.618,208.713 694.387,174.923 787.138,242.46 	"/>
	<line fill="none" stroke="#1E1E1C" x1="749.193" y1="308.147" x2="799.785" y2="219.823"/>
	<polyline fill="none" stroke="#1E1E1C" points="473.049,469.589 365.963,688.551 349.916,688.551 373.552,706.05 365.963,688.551 	
		"/>
	<line fill="none" stroke="#1E1E1C" x1="290.076" y1="757.992" x2="342.209" y2="682.842"/>
	<line fill="none" stroke="#1E1E1C" x1="382.323" y1="712.545" x2="333.533" y2="787.333"/>
	<line fill="none" stroke="#1E1E1C" x1="396.26" y1="776.564" x2="352.673" y2="757.992"/>
	<polyline fill="none" stroke="#1E1E1C" points="419.834,803.498 457.449,817.434 511.933,847.367 	"/>
	<polyline fill="none" stroke="#1E1E1C" points="492.848,881.542 588.145,720.187 624.502,651.497 670.601,564.108 	"/>
	<line fill="none" stroke="#1E1E1C" x1="531.825" y1="527.5" x2="770.273" y2="661.444"/>
	<line fill="none" stroke="#1E1E1C" x1="520.849" y1="556.045" x2="753.41" y2="687.583"/>
	<polyline fill="none" stroke="#1E1E1C" points="198.59,997.878 311.999,782.988 305.465,768.383 325.49,781.901 311.999,782.988 	
		"/>
	<line fill="none" stroke="#1E1E1C" x1="211.238" y1="895.007" x2="222.06" y2="877.528"/>
	<polyline fill="none" stroke="#1E1E1C" points="368.071,1099.013 402.643,1048.468 450.704,1077.98 	"/>
	<path fill="none" stroke="#1E1E1C" d="M464.546,979.939c0,0-5.41,12.879,9.768,23.84c15.178,10.962,11.805,15.178,11.805,15.178
		l-35.414,42.159l-6.943,12.603l-22.146-13.601l8.919-11.649l20.171,12.647"/>
	<line fill="none" stroke="#1E1E1C" x1="379.276" y1="1082.63" x2="428.781" y2="1115.923"/>
	<line fill="none" stroke="#1E1E1C" x1="413.034" y1="1105.334" x2="438.983" y2="1070.783"/>
	<line fill="none" stroke="#1E1E1C" x1="694.387" y1="373.679" x2="604.064" y2="527.5"/>
	<line fill="none" stroke="#1E1E1C" x1="753.41" y1="393.731" x2="662.64" y2="559.726"/>
	<polyline fill="none" stroke="#1E1E1C" points="703.253,485.456 719.261,492.806 753.41,431.675 737.779,422.316 	"/>
	<polyline fill="none" stroke="#1E1E1C" points="746.242,501.238 736.124,501.238 719.261,492.806 	"/>
</g>
<g id="Cut">
</g>
</svg>
