<?xml version="1.0" encoding="utf-8"?>
<!-- Generator: Adobe Illustrator 16.0.0, SVG Export Plug-In . SVG Version: 6.00 Build 0)  -->
<!DOCTYPE svg PUBLIC "-//W3C//DTD SVG 1.1//EN" "http://www.w3.org/Graphics/SVG/1.1/DTD/svg11.dtd">
<svg version="1.1" id="Ebene_1" xmlns="http://www.w3.org/2000/svg" xmlns:xlink="http://www.w3.org/1999/xlink" x="0px" y="0px"
	 width="850.395px" height="1700.787px" viewBox="0 0 850.395 1700.787" enable-background="new 0 0 850.395 1700.787"
	 xml:space="preserve">
<g id="Ebene_1_1_" display="none">
</g>
<g id="Stops" display="none">
</g>
<g id="Text" display="none">
	<rect x="-11.815" y="36.787" display="inline" fill="none" width="767.527" height="89.662"/>
	<g display="inline" enable-background="new    ">
		<path d="M51.476,60.635c0.224,1.578,0.662,2.758,1.316,3.539c1.196,1.422,3.246,2.133,6.15,2.133c1.739,0,3.151-0.188,4.236-0.562
			c2.058-0.719,3.087-2.055,3.087-4.008c0-1.141-0.504-2.023-1.512-2.648c-1.008-0.609-2.607-1.148-4.796-1.617l-3.74-0.82
			c-3.676-0.812-6.201-1.695-7.576-2.648c-2.328-1.594-3.492-4.086-3.492-7.477c0-3.094,1.139-5.664,3.417-7.711
			s5.623-3.07,10.036-3.07c3.685,0,6.829,0.965,9.431,2.895c2.602,1.93,3.966,4.73,4.093,8.402h-6.938
			c-0.128-2.078-1.057-3.555-2.787-4.43c-1.154-0.578-2.587-0.867-4.301-0.867c-1.907,0-3.428,0.375-4.565,1.125
			c-1.138,0.75-1.706,1.797-1.706,3.141c0,1.234,0.561,2.156,1.682,2.766c0.721,0.406,2.25,0.883,4.589,1.43l6.063,1.43
			c2.657,0.625,4.648,1.461,5.975,2.508c2.059,1.625,3.089,3.977,3.089,7.055c0,3.156-1.22,5.777-3.66,7.863
			c-2.44,2.086-5.887,3.129-10.34,3.129c-4.548,0-8.125-1.027-10.731-3.082s-3.909-4.879-3.909-8.473H51.476z"/>
		<path d="M96.109,45.894c1.283,0.547,2.337,1.384,3.163,2.51c0.7,0.954,1.127,1.936,1.283,2.944
			c0.155,1.009,0.233,2.654,0.233,4.938v15.014h-6.82V55.742c0-1.377-0.233-2.487-0.698-3.332c-0.604-1.188-1.752-1.783-3.443-1.783
			c-1.752,0-3.083,0.591-3.99,1.771c-0.908,1.182-1.361,2.866-1.361,5.057v13.844h-6.68v-34.43h6.68v12.188
			c0.965-1.484,2.081-2.52,3.349-3.105s2.602-0.879,4.002-0.879C93.398,45.073,94.825,45.346,96.109,45.894z"/>
		<path d="M128.374,68.174c-2.156,2.661-5.43,3.992-9.82,3.992s-7.664-1.331-9.82-3.992c-2.156-2.662-3.234-5.866-3.234-9.613
			c0-3.684,1.078-6.877,3.234-9.577c2.156-2.701,5.43-4.052,9.82-4.052s7.664,1.351,9.82,4.052c2.156,2.7,3.234,5.894,3.234,9.577
			C131.609,62.308,130.531,65.512,128.374,68.174z M123.031,64.482c1.047-1.389,1.57-3.362,1.57-5.921s-0.523-4.528-1.57-5.909
			s-2.547-2.071-4.5-2.071s-3.457,0.69-4.512,2.071s-1.582,3.351-1.582,5.909s0.527,4.532,1.582,5.921s2.559,2.083,4.512,2.083
			S121.984,65.87,123.031,64.482z"/>
		<path d="M143.046,45.752v15.398c0,1.453,0.171,2.547,0.513,3.281c0.606,1.297,1.795,1.945,3.568,1.945
			c2.27,0,3.825-0.922,4.665-2.766c0.435-1,0.653-2.32,0.653-3.961V45.752h6.773v25.547h-6.492V67.69
			c-0.062,0.078-0.218,0.312-0.467,0.703c-0.25,0.391-0.545,0.734-0.888,1.031c-1.044,0.938-2.053,1.578-3.026,1.922
			c-0.975,0.344-2.115,0.516-3.424,0.516c-3.771,0-6.31-1.359-7.619-4.078c-0.732-1.5-1.098-3.711-1.098-6.633V45.752H143.046z"/>
		<path d="M172.531,71.299h-6.68V36.752h6.68V71.299z"/>
		<path d="M192.593,46.162c1.203,0.68,2.18,1.621,2.93,2.824V36.799h6.773v34.5h-6.492V67.76c-0.953,1.516-2.039,2.617-3.258,3.305
			s-2.734,1.031-4.547,1.031c-2.984,0-5.496-1.207-7.535-3.621s-3.059-5.512-3.059-9.293c0-4.359,1.004-7.789,3.012-10.289
			s4.691-3.75,8.051-3.75C190.015,45.143,191.39,45.483,192.593,46.162z M194.234,64.362c0.984-1.406,1.477-3.227,1.477-5.461
			c0-3.125-0.789-5.359-2.367-6.703c-0.969-0.812-2.094-1.219-3.375-1.219c-1.953,0-3.387,0.738-4.301,2.215
			s-1.371,3.309-1.371,5.496c0,2.359,0.465,4.246,1.395,5.66s2.34,2.121,4.23,2.121S193.249,65.768,194.234,64.362z"/>
		<path d="M228.827,71.299h-7.172V36.752h7.172V71.299z"/>
		<path d="M253.554,63.143c0.142,1.188,0.447,2.031,0.918,2.531c0.832,0.891,2.371,1.336,4.616,1.336
			c1.318,0,2.367-0.195,3.144-0.586c0.777-0.391,1.166-0.977,1.166-1.758c0-0.75-0.313-1.32-0.939-1.711s-2.955-1.062-6.987-2.016
			c-2.903-0.719-4.948-1.617-6.136-2.695c-1.188-1.062-1.781-2.594-1.781-4.594c0-2.359,0.928-4.387,2.783-6.082
			s4.467-2.543,7.833-2.543c3.194,0,5.798,0.637,7.81,1.91s3.167,3.473,3.465,6.598h-6.68c-0.094-0.859-0.337-1.539-0.729-2.039
			c-0.736-0.906-1.99-1.359-3.761-1.359c-1.457,0-2.495,0.227-3.114,0.68s-0.928,0.984-0.928,1.594c0,0.766,0.329,1.32,0.987,1.664
			c0.657,0.359,2.982,0.977,6.974,1.852c2.661,0.625,4.656,1.57,5.984,2.836c1.312,1.281,1.969,2.883,1.969,4.805
			c0,2.531-0.943,4.598-2.83,6.199s-4.803,2.402-8.748,2.402c-4.023,0-6.994-0.848-8.912-2.543s-2.877-3.855-2.877-6.48H253.554z"/>
		<path d="M272.445,50.744v-4.758h3.562v-7.125h6.609v7.125h4.148v4.758h-4.148v13.5c0,1.047,0.133,1.699,0.398,1.957
			s1.078,0.387,2.438,0.387c0.203,0,0.418-0.004,0.645-0.012s0.449-0.02,0.668-0.035v4.992l-3.164,0.117
			c-3.156,0.109-5.312-0.438-6.469-1.641c-0.75-0.766-1.125-1.945-1.125-3.539V50.744H272.445z"/>
		<path d="M301.172,55.76c1.243-0.156,2.133-0.352,2.668-0.586c0.96-0.406,1.44-1.039,1.44-1.898c0-1.047-0.368-1.77-1.104-2.168
			c-0.737-0.398-1.817-0.598-3.243-0.598c-1.6,0-2.732,0.391-3.397,1.172c-0.476,0.578-0.792,1.359-0.95,2.344h-6.445
			c0.141-2.234,0.769-4.07,1.883-5.508c1.773-2.25,4.817-3.375,9.134-3.375c2.809,0,5.304,0.555,7.485,1.664
			c2.181,1.109,3.271,3.203,3.271,6.281v11.719c0,0.812,0.016,1.797,0.047,2.953c0.047,0.875,0.18,1.469,0.398,1.781
			s0.547,0.57,0.984,0.773v0.984h-7.266c-0.203-0.516-0.344-1-0.422-1.453s-0.141-0.969-0.188-1.547
			c-0.928,1-1.996,1.852-3.206,2.555c-1.446,0.828-3.081,1.242-4.903,1.242c-2.326,0-4.248-0.66-5.764-1.98
			c-1.518-1.32-2.275-3.191-2.275-5.613c0-3.141,1.22-5.414,3.659-6.82c1.339-0.766,3.306-1.312,5.903-1.641L301.172,55.76z
			 M305.257,58.877c-0.428,0.266-0.859,0.48-1.295,0.645c-0.437,0.164-1.034,0.316-1.794,0.457l-1.521,0.281
			c-1.426,0.25-2.449,0.555-3.07,0.914c-1.053,0.609-1.578,1.555-1.578,2.836c0,1.141,0.321,1.965,0.964,2.473
			s1.424,0.762,2.344,0.762c1.46,0,2.805-0.422,4.034-1.266s1.868-2.383,1.916-4.617V58.877z"/>
		<path d="M318.757,76.198l0.844,0.047c0.656,0.031,1.281,0.008,1.875-0.07s1.094-0.258,1.5-0.539
			c0.391-0.266,0.754-0.82,1.09-1.664s0.48-1.359,0.434-1.547l-9.387-26.672h7.43l5.578,18.844l5.273-18.844h7.102l-8.758,25.125
			c-1.693,4.844-3.032,7.848-4.018,9.012s-2.956,1.746-5.913,1.746c-0.594,0-1.071-0.004-1.431-0.012
			c-0.36-0.008-0.9-0.035-1.619-0.082V76.198z"/>
		<path d="M379.085,68.174c-2.156,2.661-5.43,3.992-9.82,3.992s-7.664-1.331-9.82-3.992c-2.156-2.662-3.234-5.866-3.234-9.613
			c0-3.684,1.078-6.877,3.234-9.577c2.156-2.701,5.43-4.052,9.82-4.052s7.664,1.351,9.82,4.052c2.156,2.7,3.234,5.894,3.234,9.577
			C382.32,62.308,381.241,65.512,379.085,68.174z M373.741,64.482c1.047-1.389,1.57-3.362,1.57-5.921s-0.523-4.528-1.57-5.909
			s-2.547-2.071-4.5-2.071s-3.457,0.69-4.512,2.071s-1.582,3.351-1.582,5.909s0.527,4.532,1.582,5.921s2.559,2.083,4.512,2.083
			S372.695,65.87,373.741,64.482z"/>
		<path d="M401.292,45.155c0.086,0.008,0.277,0.02,0.574,0.035v6.844c-0.422-0.047-0.797-0.078-1.125-0.094
			s-0.594-0.023-0.797-0.023c-2.688,0-4.492,0.875-5.414,2.625c-0.516,0.984-0.773,2.5-0.773,4.547v12.211h-6.727V45.752h6.375
			v4.453c1.031-1.703,1.93-2.867,2.695-3.492c1.25-1.047,2.875-1.57,4.875-1.57C401.101,45.143,401.206,45.147,401.292,45.155z"/>
		<path d="M424.296,63.143c0.142,1.188,0.447,2.031,0.918,2.531c0.833,0.891,2.372,1.336,4.616,1.336
			c1.318,0,2.367-0.195,3.145-0.586s1.166-0.977,1.166-1.758c0-0.75-0.314-1.32-0.939-1.711c-0.627-0.391-2.955-1.062-6.988-2.016
			c-2.903-0.719-4.948-1.617-6.135-2.695c-1.188-1.062-1.781-2.594-1.781-4.594c0-2.359,0.928-4.387,2.783-6.082
			s4.467-2.543,7.833-2.543c3.195,0,5.799,0.637,7.811,1.91s3.166,3.473,3.465,6.598h-6.68c-0.094-0.859-0.338-1.539-0.729-2.039
			c-0.736-0.906-1.99-1.359-3.762-1.359c-1.457,0-2.494,0.227-3.113,0.68c-0.619,0.453-0.928,0.984-0.928,1.594
			c0,0.766,0.329,1.32,0.987,1.664c0.658,0.359,2.982,0.977,6.975,1.852c2.66,0.625,4.656,1.57,5.984,2.836
			c1.312,1.281,1.969,2.883,1.969,4.805c0,2.531-0.943,4.598-2.83,6.199s-4.803,2.402-8.748,2.402c-4.024,0-6.995-0.848-8.913-2.543
			s-2.877-3.855-2.877-6.48H424.296z"/>
		<path d="M464.172,45.894c1.283,0.547,2.338,1.384,3.162,2.51c0.699,0.954,1.127,1.936,1.283,2.944s0.234,2.654,0.234,4.938v15.014
			h-6.82V55.742c0-1.377-0.232-2.487-0.699-3.332c-0.604-1.188-1.752-1.783-3.441-1.783c-1.754,0-3.084,0.591-3.99,1.771
			c-0.908,1.182-1.361,2.866-1.361,5.057v13.844h-6.68v-34.43h6.68v12.188c0.965-1.484,2.08-2.52,3.348-3.105
			s2.602-0.879,4.002-0.879C461.461,45.073,462.888,45.346,464.172,45.894z"/>
		<path d="M496.437,68.174c-2.156,2.661-5.43,3.992-9.82,3.992s-7.664-1.331-9.82-3.992c-2.156-2.662-3.234-5.866-3.234-9.613
			c0-3.684,1.078-6.877,3.234-9.577c2.156-2.701,5.43-4.052,9.82-4.052s7.664,1.351,9.82,4.052c2.156,2.7,3.234,5.894,3.234,9.577
			C499.672,62.308,498.594,65.512,496.437,68.174z M491.094,64.482c1.047-1.389,1.57-3.362,1.57-5.921s-0.523-4.528-1.57-5.909
			s-2.547-2.071-4.5-2.071s-3.457,0.69-4.512,2.071s-1.582,3.351-1.582,5.909s0.527,4.532,1.582,5.921s2.559,2.083,4.512,2.083
			S490.047,65.87,491.094,64.482z"/>
		<path d="M511.109,45.752v15.398c0,1.453,0.17,2.547,0.512,3.281c0.607,1.297,1.797,1.945,3.568,1.945
			c2.27,0,3.826-0.922,4.664-2.766c0.436-1,0.654-2.32,0.654-3.961V45.752h6.773v25.547h-6.492V67.69
			c-0.062,0.078-0.219,0.312-0.467,0.703c-0.25,0.391-0.547,0.734-0.889,1.031c-1.045,0.938-2.053,1.578-3.027,1.922
			s-2.115,0.516-3.424,0.516c-3.77,0-6.311-1.359-7.619-4.078c-0.732-1.5-1.098-3.711-1.098-6.633V45.752H511.109z"/>
		<path d="M540.594,71.299h-6.68V36.752h6.68V71.299z"/>
		<path d="M560.656,46.162c1.203,0.68,2.18,1.621,2.93,2.824V36.799h6.773v34.5h-6.492V67.76c-0.953,1.516-2.039,2.617-3.258,3.305
			s-2.734,1.031-4.547,1.031c-2.984,0-5.496-1.207-7.535-3.621s-3.059-5.512-3.059-9.293c0-4.359,1.004-7.789,3.012-10.289
			s4.691-3.75,8.051-3.75C558.078,45.143,559.453,45.483,560.656,46.162z M562.297,64.362c0.984-1.406,1.477-3.227,1.477-5.461
			c0-3.125-0.789-5.359-2.367-6.703c-0.969-0.812-2.094-1.219-3.375-1.219c-1.953,0-3.387,0.738-4.301,2.215
			s-1.371,3.309-1.371,5.496c0,2.359,0.465,4.246,1.395,5.66s2.34,2.121,4.23,2.121S561.312,65.768,562.297,64.362z"/>
		<path d="M596.89,71.299h-7.172V36.752h7.172V71.299z"/>
		<path d="M629.074,45.729c1.623,0.672,2.934,1.906,3.934,3.703v-3.68h6.516v24.234c0,3.297-0.555,5.781-1.664,7.453
			c-1.906,2.875-5.562,4.312-10.969,4.312c-3.266,0-5.93-0.641-7.992-1.922s-3.203-3.195-3.422-5.742h7.266
			c0.188,0.781,0.492,1.344,0.914,1.688c0.719,0.609,1.93,0.914,3.633,0.914c2.406,0,4.016-0.805,4.828-2.414
			c0.531-1.031,0.797-2.766,0.797-5.203v-1.641c-0.641,1.094-1.328,1.914-2.062,2.461c-1.328,1.016-3.055,1.523-5.18,1.523
			c-3.281,0-5.902-1.152-7.863-3.457s-2.941-5.426-2.941-9.363c0-3.797,0.943-6.988,2.832-9.574s4.564-3.879,8.029-3.879
			C627.008,45.143,628.123,45.338,629.074,45.729z M631.349,64.045c1.074-1.18,1.611-3.059,1.611-5.637
			c0-2.422-0.51-4.266-1.529-5.531s-2.385-1.898-4.096-1.898c-2.334,0-3.945,1.102-4.832,3.305
			c-0.467,1.172-0.699,2.617-0.699,4.336c0,1.484,0.248,2.805,0.746,3.961c0.902,2.156,2.521,3.234,4.855,3.234
			C628.961,65.815,630.275,65.225,631.349,64.045z"/>
		<path d="M667.062,68.174c-2.156,2.661-5.43,3.992-9.82,3.992s-7.664-1.331-9.82-3.992c-2.156-2.662-3.234-5.866-3.234-9.613
			c0-3.684,1.078-6.877,3.234-9.577c2.156-2.701,5.43-4.052,9.82-4.052s7.664,1.351,9.82,4.052c2.156,2.7,3.234,5.894,3.234,9.577
			C670.297,62.308,669.219,65.512,667.062,68.174z M661.719,64.482c1.047-1.389,1.57-3.362,1.57-5.921s-0.523-4.528-1.57-5.909
			s-2.547-2.071-4.5-2.071s-3.457,0.69-4.512,2.071s-1.582,3.351-1.582,5.909s0.527,4.532,1.582,5.921s2.559,2.083,4.512,2.083
			S660.672,65.87,661.719,64.482z"/>
		<path d="M679.508,38.182c1.844-1.188,4.109-1.781,6.797-1.781c3.531,0,6.465,0.844,8.801,2.531s3.504,4.188,3.504,7.5
			c0,2.031-0.508,3.742-1.52,5.133c-0.592,0.844-1.73,1.922-3.412,3.234l-1.66,1.289c-0.904,0.703-1.504,1.523-1.801,2.461
			c-0.186,0.594-0.287,1.516-0.303,2.766h-6.352c0.094-2.641,0.342-4.465,0.748-5.473c0.404-1.008,1.447-2.168,3.131-3.48
			l1.705-1.336c0.561-0.422,1.014-0.883,1.355-1.383c0.623-0.859,0.936-1.805,0.936-2.836c0-1.188-0.348-2.27-1.041-3.246
			s-1.961-1.465-3.799-1.465c-1.809,0-3.092,0.602-3.848,1.805s-1.133,2.453-1.133,3.75h-6.773
			C675.031,43.198,676.586,40.041,679.508,38.182z M683.398,64.526h7.008v6.773h-7.008V64.526z"/>
	</g>
</g>
<g id="Engrave">
	<path fill="#7DBB4D" d="M650.405,290.308l144.934,102.881l2.895-4.077L652.141,285.408c4.607-13.01,7.498-21.158,7.498-21.158
		l-17.115-12.991c0,0-4.374,10.506-8.47,21.311l-66.855-47.458l-2.895,4.077l67.94,48.229c-2.307,6.296-4.273,12.165-4.941,15.502
		c-0.827,4.137-20.321,49.044-42.632,100.32l-87.894-66.708l-0.086-0.062c-0.476-0.331-124.72-87.002-125.975-87.878l-2.861,4.101
		l124.565,86.896c0.529,0.37,0.967,0.675,1.348,0.909l-0.015,0.019l88.377,67.076c0,0-64.285,149.076-64.285,153.906
		c0,1.607-1.841,7.674-4.896,16.637l-1.299-0.714l-0.269-0.148L351.79,525.033l-183.814-48.062l-1.267,4.837l183.81,48.062
		l158.991,42.08l1.785,0.982c-14.071,40.386-46.666,124.742-55.841,148.333c-11.805,30.354-84.06,193.509-92.491,215.432
		c-5.09,13.232-30.604,71.899-50.033,116.34l-24.384-46.014l-91.639-56.851l-2.637,4.248l90.489,56.138l25.61,48.329
		c-11.532,26.359-20.345,46.396-20.345,46.396s-3.515,7.777-9.28,20.271l-33.435-16.967l-118.222-48.985l-1.914,4.619
		l117.958,48.868l33.513,17.007c-1.349,2.911-2.793,6.023-4.323,9.309L259.04,1123.9l-75.922-33.919l-54.138-19.464l-1.691,4.705
		l53.875,19.362l74.979,33.496l15.927,16.153c-24.155,51.677-66.103,138.702-83.614,158.549l24.843,12.646
		c0,0,1.678-3.097,4.659-8.667l100.945,74.203l2.961-4.029l-101.234-74.416c0,0,41.543-79.087,71.188-139.73l39.067,26.043
		l45.511,27.812l74.201,46.375l2.649-4.24l-74.223-46.388l-45.449-27.772l-39.547-26.363c2.631-5.401,5.248-10.818,7.843-16.23
		l88.645,69.409l0.145,0.112l72.674,41.406l2.476-4.344l-72.355-41.226l-89.233-69.872l-0.138-0.107
		c5.433-11.386,10.741-22.72,15.802-33.794c4.671-10.223,9.641-21.036,14.8-32.222l116.871-2.756l82.226,26.849l1.553-4.754
		l-83.04-27.114l-115.275,2.719c44.443-96.288,101.624-217.828,106.083-237.146c3.109-13.476,54.79-139.728,96.114-240.898
		l221.374,121.794l2.409-4.381L541.116,583.629c25.064-61.368,45.917-112.565,49.086-122.072
		C596.578,442.429,633.016,339.407,650.405,290.308z"/>
	<polygon fill="#7DBB4D" points="346.916,1176.743 390.648,1103.61 428.521,1116.156 461.547,1069.266 340.468,1087.203 
		302.676,1139.482 	"/>
	<path fill="#7DBB4D" d="M389.523,1036.055l46.459-92.991l92.841,54.118l-10.977,20.883l33.31,25.859
		c0,0-21.404,39.553-22.333,43.281c-0.928,3.728-76.902-21.078-76.902-21.078l-23.778,0.558L389.523,1036.055z"/>
	<polygon fill="#7DBB4D" points="551.156,783.344 562.66,759.485 534.553,742.62 517.849,762.982 	"/>
	<polygon fill="#7DBB4D" points="287.076,847.319 339.21,772.169 379.323,801.872 330.533,876.659 	"/>
	<polygon fill="#7DBB4D" points="275.271,691.03 308.999,683.441 340.468,696.067 305.944,747.539 	"/>
	<polygon fill="#7DBB4D" points="184.207,743.485 279.557,722.564 283.7,743.485 218.988,844.125 204.373,844.125 199.06,806.551 
		192.006,806.551 	"/>
	<polygon fill="#7DBB4D" points="84.289,1144.543 106.673,1153.223 122.038,1093.106 110.428,1087.203 	"/>
	<polygon fill="#7DBB4D" points="308.999,375.201 327.129,348.708 424.048,416.585 407.879,439.998 	"/>
	<polyline fill="#7DBB4D" points="627.802,571.295 646.226,540.84 574.979,500.396 560.673,535.846 627.802,571.295 	"/>
	<polyline fill="#7DBB4D" points="623.873,577.984 635.878,586.349 644.599,577.984 686.385,600.143 659.64,651.691 
		600.103,618.936 623.873,577.984 	"/>
	<polygon fill="#7DBB4D" points="282.438,375.13 325.441,405.939 314.059,420.109 273.163,390.504 	"/>
	<path fill="#058855" d="M189.889,1261.31c6.414,0,11.61,5.197,11.61,11.611c0,6.407-5.196,11.604-11.61,11.604
		c-6.41,0-11.607-5.197-11.607-11.604C178.281,1266.507,183.479,1261.31,189.889,1261.31z"/>
	<path fill="#058855" d="M499.696,538.278c6.414,0,11.611,5.197,11.611,11.611c0,6.408-5.197,11.604-11.611,11.604
		c-6.41,0-11.606-5.196-11.606-11.604C488.09,543.476,493.286,538.278,499.696,538.278z"/>
	<path fill="#058855" d="M599.84,303.601c6.414,0,11.61,5.197,11.61,11.611c0,6.408-5.196,11.604-11.61,11.604
		c-6.41,0-11.607-5.196-11.607-11.604C588.231,308.798,593.429,303.601,599.84,303.601z"/>
	<path fill="#058855" d="M403.631,786.955c6.414,0,11.61,5.197,11.61,11.611c0,6.408-5.196,11.605-11.61,11.605
		c-6.41,0-11.607-5.197-11.607-11.605C392.022,792.153,397.22,786.955,403.631,786.955z"/>
	<path fill="#058855" d="M290.201,1044.632c6.414,0,11.611,5.196,11.611,11.61c0,6.408-5.197,11.605-11.611,11.605
		c-6.41,0-11.606-5.197-11.606-11.605C278.594,1049.829,283.791,1044.632,290.201,1044.632z"/>
	<g enable-background="new    ">
		<path d="M51.476,60.635c0.224,1.578,0.662,2.758,1.316,3.539c1.196,1.422,3.246,2.133,6.15,2.133c1.739,0,3.151-0.188,4.236-0.562
			c2.058-0.719,3.087-2.055,3.087-4.008c0-1.141-0.504-2.023-1.512-2.648c-1.008-0.609-2.607-1.148-4.796-1.617l-3.74-0.82
			c-3.676-0.812-6.201-1.695-7.576-2.648c-2.328-1.594-3.492-4.086-3.492-7.477c0-3.094,1.139-5.664,3.417-7.711
			s5.623-3.07,10.036-3.07c3.685,0,6.829,0.965,9.431,2.895c2.602,1.93,3.966,4.73,4.093,8.402h-6.938
			c-0.128-2.078-1.057-3.555-2.787-4.43c-1.154-0.578-2.587-0.867-4.301-0.867c-1.907,0-3.428,0.375-4.565,1.125
			c-1.138,0.75-1.706,1.797-1.706,3.141c0,1.234,0.561,2.156,1.682,2.766c0.721,0.406,2.25,0.883,4.589,1.43l6.063,1.43
			c2.657,0.625,4.648,1.461,5.975,2.508c2.059,1.625,3.089,3.977,3.089,7.055c0,3.156-1.22,5.777-3.66,7.863
			c-2.44,2.086-5.887,3.129-10.34,3.129c-4.548,0-8.125-1.027-10.731-3.082s-3.909-4.879-3.909-8.473H51.476z"/>
		<path d="M96.109,45.894c1.283,0.547,2.337,1.384,3.163,2.51c0.7,0.954,1.127,1.936,1.283,2.944
			c0.155,1.009,0.233,2.654,0.233,4.938v15.014h-6.82V55.742c0-1.377-0.233-2.487-0.698-3.332c-0.604-1.188-1.752-1.783-3.443-1.783
			c-1.752,0-3.083,0.591-3.99,1.771c-0.908,1.182-1.361,2.866-1.361,5.057v13.844h-6.68v-34.43h6.68v12.188
			c0.965-1.484,2.081-2.52,3.349-3.105s2.602-0.879,4.002-0.879C93.398,45.073,94.825,45.346,96.109,45.894z"/>
		<path d="M128.374,68.174c-2.156,2.661-5.43,3.992-9.82,3.992s-7.664-1.331-9.82-3.992c-2.156-2.662-3.234-5.866-3.234-9.613
			c0-3.684,1.078-6.877,3.234-9.577c2.156-2.701,5.43-4.052,9.82-4.052s7.664,1.351,9.82,4.052c2.156,2.7,3.234,5.894,3.234,9.577
			C131.609,62.308,130.531,65.512,128.374,68.174z M123.031,64.482c1.047-1.389,1.57-3.362,1.57-5.921s-0.523-4.528-1.57-5.909
			s-2.547-2.071-4.5-2.071s-3.457,0.69-4.512,2.071s-1.582,3.351-1.582,5.909s0.527,4.532,1.582,5.921s2.559,2.083,4.512,2.083
			S121.984,65.87,123.031,64.482z"/>
		<path d="M143.046,45.752v15.398c0,1.453,0.171,2.547,0.513,3.281c0.606,1.297,1.795,1.945,3.568,1.945
			c2.27,0,3.825-0.922,4.665-2.766c0.435-1,0.653-2.32,0.653-3.961V45.752h6.773v25.547h-6.492V67.69
			c-0.062,0.078-0.218,0.312-0.467,0.703c-0.25,0.391-0.545,0.734-0.888,1.031c-1.044,0.938-2.053,1.578-3.026,1.922
			c-0.975,0.344-2.115,0.516-3.424,0.516c-3.771,0-6.31-1.359-7.619-4.078c-0.732-1.5-1.098-3.711-1.098-6.633V45.752H143.046z"/>
		<path d="M172.531,71.299h-6.68V36.752h6.68V71.299z"/>
		<path d="M192.593,46.162c1.203,0.68,2.18,1.621,2.93,2.824V36.799h6.773v34.5h-6.492V67.76c-0.953,1.516-2.039,2.617-3.258,3.305
			s-2.734,1.031-4.547,1.031c-2.984,0-5.496-1.207-7.535-3.621s-3.059-5.512-3.059-9.293c0-4.359,1.004-7.789,3.012-10.289
			s4.691-3.75,8.051-3.75C190.015,45.143,191.39,45.483,192.593,46.162z M194.234,64.362c0.984-1.406,1.477-3.227,1.477-5.461
			c0-3.125-0.789-5.359-2.367-6.703c-0.969-0.812-2.094-1.219-3.375-1.219c-1.953,0-3.387,0.738-4.301,2.215
			s-1.371,3.309-1.371,5.496c0,2.359,0.465,4.246,1.395,5.66s2.34,2.121,4.23,2.121S193.249,65.768,194.234,64.362z"/>
		<path d="M228.827,71.299h-7.172V36.752h7.172V71.299z"/>
		<path d="M253.554,63.143c0.142,1.188,0.447,2.031,0.918,2.531c0.832,0.891,2.371,1.336,4.616,1.336
			c1.318,0,2.367-0.195,3.144-0.586c0.777-0.391,1.166-0.977,1.166-1.758c0-0.75-0.313-1.32-0.939-1.711s-2.955-1.062-6.987-2.016
			c-2.903-0.719-4.948-1.617-6.136-2.695c-1.188-1.062-1.781-2.594-1.781-4.594c0-2.359,0.928-4.387,2.783-6.082
			s4.467-2.543,7.833-2.543c3.194,0,5.798,0.637,7.81,1.91s3.167,3.473,3.465,6.598h-6.68c-0.094-0.859-0.337-1.539-0.729-2.039
			c-0.736-0.906-1.99-1.359-3.761-1.359c-1.457,0-2.495,0.227-3.114,0.68s-0.928,0.984-0.928,1.594c0,0.766,0.329,1.32,0.987,1.664
			c0.657,0.359,2.982,0.977,6.974,1.852c2.661,0.625,4.656,1.57,5.984,2.836c1.312,1.281,1.969,2.883,1.969,4.805
			c0,2.531-0.943,4.598-2.83,6.199s-4.803,2.402-8.748,2.402c-4.023,0-6.994-0.848-8.912-2.543s-2.877-3.855-2.877-6.48H253.554z"/>
		<path d="M272.445,50.744v-4.758h3.562v-7.125h6.609v7.125h4.148v4.758h-4.148v13.5c0,1.047,0.133,1.699,0.398,1.957
			s1.078,0.387,2.438,0.387c0.203,0,0.418-0.004,0.645-0.012s0.449-0.02,0.668-0.035v4.992l-3.164,0.117
			c-3.156,0.109-5.312-0.438-6.469-1.641c-0.75-0.766-1.125-1.945-1.125-3.539V50.744H272.445z"/>
		<path d="M301.172,55.76c1.243-0.156,2.133-0.352,2.668-0.586c0.96-0.406,1.44-1.039,1.44-1.898c0-1.047-0.368-1.77-1.104-2.168
			c-0.737-0.398-1.817-0.598-3.243-0.598c-1.6,0-2.732,0.391-3.397,1.172c-0.476,0.578-0.792,1.359-0.95,2.344h-6.445
			c0.141-2.234,0.769-4.07,1.883-5.508c1.773-2.25,4.817-3.375,9.134-3.375c2.809,0,5.304,0.555,7.485,1.664
			c2.181,1.109,3.271,3.203,3.271,6.281v11.719c0,0.812,0.016,1.797,0.047,2.953c0.047,0.875,0.18,1.469,0.398,1.781
			s0.547,0.57,0.984,0.773v0.984h-7.266c-0.203-0.516-0.344-1-0.422-1.453s-0.141-0.969-0.188-1.547
			c-0.928,1-1.996,1.852-3.206,2.555c-1.446,0.828-3.081,1.242-4.903,1.242c-2.326,0-4.248-0.66-5.764-1.98
			c-1.518-1.32-2.275-3.191-2.275-5.613c0-3.141,1.22-5.414,3.659-6.82c1.339-0.766,3.306-1.312,5.903-1.641L301.172,55.76z
			 M305.257,58.877c-0.428,0.266-0.859,0.48-1.295,0.645c-0.437,0.164-1.034,0.316-1.794,0.457l-1.521,0.281
			c-1.426,0.25-2.449,0.555-3.07,0.914c-1.053,0.609-1.578,1.555-1.578,2.836c0,1.141,0.321,1.965,0.964,2.473
			s1.424,0.762,2.344,0.762c1.46,0,2.805-0.422,4.034-1.266s1.868-2.383,1.916-4.617V58.877z"/>
		<path d="M318.757,76.198l0.844,0.047c0.656,0.031,1.281,0.008,1.875-0.07s1.094-0.258,1.5-0.539
			c0.391-0.266,0.754-0.82,1.09-1.664s0.48-1.359,0.434-1.547l-9.387-26.672h7.43l5.578,18.844l5.273-18.844h7.102l-8.758,25.125
			c-1.693,4.844-3.032,7.848-4.018,9.012s-2.956,1.746-5.913,1.746c-0.594,0-1.071-0.004-1.431-0.012
			c-0.36-0.008-0.9-0.035-1.619-0.082V76.198z"/>
		<path d="M379.085,68.174c-2.156,2.661-5.43,3.992-9.82,3.992s-7.664-1.331-9.82-3.992c-2.156-2.662-3.234-5.866-3.234-9.613
			c0-3.684,1.078-6.877,3.234-9.577c2.156-2.701,5.43-4.052,9.82-4.052s7.664,1.351,9.82,4.052c2.156,2.7,3.234,5.894,3.234,9.577
			C382.32,62.308,381.241,65.512,379.085,68.174z M373.741,64.482c1.047-1.389,1.57-3.362,1.57-5.921s-0.523-4.528-1.57-5.909
			s-2.547-2.071-4.5-2.071s-3.457,0.69-4.512,2.071s-1.582,3.351-1.582,5.909s0.527,4.532,1.582,5.921s2.559,2.083,4.512,2.083
			S372.695,65.87,373.741,64.482z"/>
		<path d="M401.292,45.155c0.086,0.008,0.277,0.02,0.574,0.035v6.844c-0.422-0.047-0.797-0.078-1.125-0.094
			s-0.594-0.023-0.797-0.023c-2.688,0-4.492,0.875-5.414,2.625c-0.516,0.984-0.773,2.5-0.773,4.547v12.211h-6.727V45.752h6.375
			v4.453c1.031-1.703,1.93-2.867,2.695-3.492c1.25-1.047,2.875-1.57,4.875-1.57C401.101,45.143,401.206,45.147,401.292,45.155z"/>
		<path d="M424.296,63.143c0.142,1.188,0.447,2.031,0.918,2.531c0.833,0.891,2.372,1.336,4.616,1.336
			c1.318,0,2.367-0.195,3.145-0.586s1.166-0.977,1.166-1.758c0-0.75-0.314-1.32-0.939-1.711c-0.627-0.391-2.955-1.062-6.988-2.016
			c-2.903-0.719-4.948-1.617-6.135-2.695c-1.188-1.062-1.781-2.594-1.781-4.594c0-2.359,0.928-4.387,2.783-6.082
			s4.467-2.543,7.833-2.543c3.195,0,5.799,0.637,7.811,1.91s3.166,3.473,3.465,6.598h-6.68c-0.094-0.859-0.338-1.539-0.729-2.039
			c-0.736-0.906-1.99-1.359-3.762-1.359c-1.457,0-2.494,0.227-3.113,0.68c-0.619,0.453-0.928,0.984-0.928,1.594
			c0,0.766,0.329,1.32,0.987,1.664c0.658,0.359,2.982,0.977,6.975,1.852c2.66,0.625,4.656,1.57,5.984,2.836
			c1.312,1.281,1.969,2.883,1.969,4.805c0,2.531-0.943,4.598-2.83,6.199s-4.803,2.402-8.748,2.402c-4.024,0-6.995-0.848-8.913-2.543
			s-2.877-3.855-2.877-6.48H424.296z"/>
		<path d="M464.172,45.894c1.283,0.547,2.338,1.384,3.162,2.51c0.699,0.954,1.127,1.936,1.283,2.944s0.234,2.654,0.234,4.938v15.014
			h-6.82V55.742c0-1.377-0.232-2.487-0.699-3.332c-0.604-1.188-1.752-1.783-3.441-1.783c-1.754,0-3.084,0.591-3.99,1.771
			c-0.908,1.182-1.361,2.866-1.361,5.057v13.844h-6.68v-34.43h6.68v12.188c0.965-1.484,2.08-2.52,3.348-3.105
			s2.602-0.879,4.002-0.879C461.461,45.073,462.888,45.346,464.172,45.894z"/>
		<path d="M496.437,68.174c-2.156,2.661-5.43,3.992-9.82,3.992s-7.664-1.331-9.82-3.992c-2.156-2.662-3.234-5.866-3.234-9.613
			c0-3.684,1.078-6.877,3.234-9.577c2.156-2.701,5.43-4.052,9.82-4.052s7.664,1.351,9.82,4.052c2.156,2.7,3.234,5.894,3.234,9.577
			C499.672,62.308,498.594,65.512,496.437,68.174z M491.094,64.482c1.047-1.389,1.57-3.362,1.57-5.921s-0.523-4.528-1.57-5.909
			s-2.547-2.071-4.5-2.071s-3.457,0.69-4.512,2.071s-1.582,3.351-1.582,5.909s0.527,4.532,1.582,5.921s2.559,2.083,4.512,2.083
			S490.047,65.87,491.094,64.482z"/>
		<path d="M511.109,45.752v15.398c0,1.453,0.17,2.547,0.512,3.281c0.607,1.297,1.797,1.945,3.568,1.945
			c2.27,0,3.826-0.922,4.664-2.766c0.436-1,0.654-2.32,0.654-3.961V45.752h6.773v25.547h-6.492V67.69
			c-0.062,0.078-0.219,0.312-0.467,0.703c-0.25,0.391-0.547,0.734-0.889,1.031c-1.045,0.938-2.053,1.578-3.027,1.922
			s-2.115,0.516-3.424,0.516c-3.77,0-6.311-1.359-7.619-4.078c-0.732-1.5-1.098-3.711-1.098-6.633V45.752H511.109z"/>
		<path d="M540.594,71.299h-6.68V36.752h6.68V71.299z"/>
		<path d="M560.656,46.162c1.203,0.68,2.18,1.621,2.93,2.824V36.799h6.773v34.5h-6.492V67.76c-0.953,1.516-2.039,2.617-3.258,3.305
			s-2.734,1.031-4.547,1.031c-2.984,0-5.496-1.207-7.535-3.621s-3.059-5.512-3.059-9.293c0-4.359,1.004-7.789,3.012-10.289
			s4.691-3.75,8.051-3.75C558.078,45.143,559.453,45.483,560.656,46.162z M562.297,64.362c0.984-1.406,1.477-3.227,1.477-5.461
			c0-3.125-0.789-5.359-2.367-6.703c-0.969-0.812-2.094-1.219-3.375-1.219c-1.953,0-3.387,0.738-4.301,2.215
			s-1.371,3.309-1.371,5.496c0,2.359,0.465,4.246,1.395,5.66s2.34,2.121,4.23,2.121S561.312,65.768,562.297,64.362z"/>
		<path d="M596.89,71.299h-7.172V36.752h7.172V71.299z"/>
		<path d="M629.074,45.729c1.623,0.672,2.934,1.906,3.934,3.703v-3.68h6.516v24.234c0,3.297-0.555,5.781-1.664,7.453
			c-1.906,2.875-5.562,4.312-10.969,4.312c-3.266,0-5.93-0.641-7.992-1.922s-3.203-3.195-3.422-5.742h7.266
			c0.188,0.781,0.492,1.344,0.914,1.688c0.719,0.609,1.93,0.914,3.633,0.914c2.406,0,4.016-0.805,4.828-2.414
			c0.531-1.031,0.797-2.766,0.797-5.203v-1.641c-0.641,1.094-1.328,1.914-2.062,2.461c-1.328,1.016-3.055,1.523-5.18,1.523
			c-3.281,0-5.902-1.152-7.863-3.457s-2.941-5.426-2.941-9.363c0-3.797,0.943-6.988,2.832-9.574s4.564-3.879,8.029-3.879
			C627.008,45.143,628.123,45.338,629.074,45.729z M631.349,64.045c1.074-1.18,1.611-3.059,1.611-5.637
			c0-2.422-0.51-4.266-1.529-5.531s-2.385-1.898-4.096-1.898c-2.334,0-3.945,1.102-4.832,3.305
			c-0.467,1.172-0.699,2.617-0.699,4.336c0,1.484,0.248,2.805,0.746,3.961c0.902,2.156,2.521,3.234,4.855,3.234
			C628.961,65.815,630.275,65.225,631.349,64.045z"/>
		<path d="M667.062,68.174c-2.156,2.661-5.43,3.992-9.82,3.992s-7.664-1.331-9.82-3.992c-2.156-2.662-3.234-5.866-3.234-9.613
			c0-3.684,1.078-6.877,3.234-9.577c2.156-2.701,5.43-4.052,9.82-4.052s7.664,1.351,9.82,4.052c2.156,2.7,3.234,5.894,3.234,9.577
			C670.297,62.308,669.219,65.512,667.062,68.174z M661.719,64.482c1.047-1.389,1.57-3.362,1.57-5.921s-0.523-4.528-1.57-5.909
			s-2.547-2.071-4.5-2.071s-3.457,0.69-4.512,2.071s-1.582,3.351-1.582,5.909s0.527,4.532,1.582,5.921s2.559,2.083,4.512,2.083
			S660.672,65.87,661.719,64.482z"/>
		<path d="M679.508,38.182c1.844-1.188,4.109-1.781,6.797-1.781c3.531,0,6.465,0.844,8.801,2.531s3.504,4.188,3.504,7.5
			c0,2.031-0.508,3.742-1.52,5.133c-0.592,0.844-1.73,1.922-3.412,3.234l-1.66,1.289c-0.904,0.703-1.504,1.523-1.801,2.461
			c-0.186,0.594-0.287,1.516-0.303,2.766h-6.352c0.094-2.641,0.342-4.465,0.748-5.473c0.404-1.008,1.447-2.168,3.131-3.48
			l1.705-1.336c0.561-0.422,1.014-0.883,1.355-1.383c0.623-0.859,0.936-1.805,0.936-2.836c0-1.188-0.348-2.27-1.041-3.246
			s-1.961-1.465-3.799-1.465c-1.809,0-3.092,0.602-3.848,1.805s-1.133,2.453-1.133,3.75h-6.773
			C675.031,43.198,676.586,40.041,679.508,38.182z M683.398,64.526h7.008v6.773h-7.008V64.526z"/>
	</g>
</g>
<g id="Mark">
	<path fill="#F0CA02" stroke="#000000" stroke-width="0.5" stroke-miterlimit="10" d="M189.889,1264.625
		c4.58,0,8.293,3.714,8.293,8.296c0,4.577-3.713,8.288-8.293,8.288c-4.578,0-8.291-3.711-8.291-8.288
		C181.598,1268.339,185.311,1264.625,189.889,1264.625z"/>
	<line fill="none" stroke="#000000" x1="128.135" y1="1287.046" x2="193.182" y2="1296.673"/>
	<polyline fill="none" stroke="#000000" points="112.957,1315.428 170.294,1191.763 141.626,1077.718 	"/>
	<line fill="none" stroke="#000000" x1="271.025" y1="1143.177" x2="170.294" y2="1191.763"/>
	<polyline fill="none" stroke="#000000" points="140.189,1256.692 166.922,1271.582 182.099,1260.901 216.771,1169.464 	"/>
	<path fill="none" stroke="#000000" d="M244.119,1156.345c0,0-16.304,53.866-27.348,56.776l-15.167-3.655"/>
	<line fill="none" stroke="#000000" x1="162.338" y1="1160.11" x2="201.604" y2="1176.743"/>
	<line fill="none" stroke="#000000" x1="107.786" y1="1276.869" x2="148.134" y2="1103.61"/>
	<line fill="none" stroke="#000000" x1="78.78" y1="1262.366" x2="122.038" y2="1093.106"/>
	<line fill="none" stroke="#000000" x1="84.289" y1="1144.543" x2="134.128" y2="1163.756"/>
	<line fill="none" stroke="#000000" x1="271.344" y1="1204" x2="381.655" y2="1276.869"/>
	<line fill="none" stroke="#000000" x1="339.067" y1="1193.834" x2="273.585" y2="1290.838"/>
	<polyline fill="none" stroke="#000000" points="238.935,1267.084 307.026,1315.428 354.619,1259.01 	"/>
	<line fill="none" stroke="#000000" x1="293.482" y1="1218.623" x2="253.518" y2="1276.869"/>
	<line fill="none" stroke="#000000" x1="248.993" y1="1247.746" x2="265.161" y2="1259.899"/>
	<line fill="none" stroke="#000000" x1="175.354" y1="1115.45" x2="188.454" y2="1095.102"/>
	<line fill="none" stroke="#000000" x1="324.572" y1="1294.629" x2="351.58" y2="1310.933"/>
	<polyline fill="none" stroke="#000000" points="522.982,993.778 547.525,959.918 557.598,942.175 	"/>
	<path fill="none" stroke="#000000" d="M589.314,925.722l-8.107,14.203c-11.872,2.25-22.133,19.488-26.421,26.93l3.587,4.015
		c0,0,3.162,2.346,5.691,0c2.529-2.345,8.609-11.197,8.609-11.197l8.676-1.267c0,0,4.427-3.372,4.638-9.694
		c0.211-6.324-4.78-8.785-4.78-8.785"/>
	<polyline fill="none" stroke="#000000" points="547.525,959.918 548.466,965.784 554.786,966.855 	"/>
	<polyline fill="none" stroke="#000000" points="572.675,830.627 599.057,846.262 611.796,824.553 	"/>
	<polyline fill="none" stroke="#000000" points="588.517,877.25 597.37,862.072 599.057,846.262 	"/>
	<line fill="none" stroke="#000000" x1="622.666" y1="875.985" x2="597.37" y2="862.072"/>
	<line fill="none" stroke="#000000" x1="212.032" y1="666.859" x2="266.168" y2="655.285"/>
	<polyline fill="none" stroke="#000000" points="428.449,448.707 428.449,481.919 432.948,488.103 457.746,496.97 	"/>
	<path fill="none" stroke="#000000" d="M428.449,481.919l-14.473,9.557c0,0-3.795,2.557,0,5.494c3.794,2.938,6.393,0,6.393,0
		l12.579-8.867"/>
	<polyline fill="none" stroke="#000000" points="621.503,311.218 536.239,254.132 350.472,524.686 	"/>
	<line fill="none" stroke="#000000" x1="599.062" y1="362.439" x2="508.471" y2="294.575"/>
	<polyline fill="none" stroke="#000000" points="543.156,489.024 470.05,463.366 531.348,355.938 	"/>
	<line fill="none" stroke="#000000" x1="570.967" y1="426.494" x2="506.603" y2="401.297"/>
	<line fill="none" stroke="#000000" x1="556.574" y1="457.899" x2="487.922" y2="432.045"/>
	<line fill="none" stroke="#000000" x1="262.623" y1="342.57" x2="407.066" y2="441.173"/>
	<polyline fill="none" stroke="#000000" points="167.343,626.103 252.505,601.65 323.334,608.396 394.161,615.985 479.844,662.361 
		698.554,788.839 	"/>
	<polyline fill="none" stroke="#000000" points="175.775,713.795 275.271,691.03 308.999,683.441 340.468,696.067 448.969,735.718 
		681.268,863.758 	"/>
	<polyline fill="none" stroke="#000000" points="594.84,928.809 415.241,828.469 304.783,746.679 275.271,691.029 252.505,601.65 
		228.501,495.378 308.999,375.201 419.457,213.781 	"/>
	<polyline fill="none" stroke="#000000" points="254.382,824.414 384.044,912.788 541.719,1004.699 	"/>
	<polyline fill="none" stroke="#000000" points="353.992,958.299 243.651,895.799 184.207,868.099 	"/>
	<polyline fill="none" stroke="#000000" points="351.355,966.855 269.369,921.22 184.207,875.688 	"/>
	<polyline fill="none" stroke="#000000" points="264.893,1159.504 175.354,1115.45 110.428,1087.203 	"/>
	<line fill="none" stroke="#000000" x1="227.773" y1="1235.439" x2="129.93" y2="1181.782"/>
	<polyline fill="none" stroke="#000000" points="199.046,1287.219 128.135,1287.046 55.62,1250.782 	"/>
	<polyline fill="none" stroke="#000000" points="691.387,445.957 691.387,463.006 608.218,409.782 	"/>
	<polyline fill="none" stroke="#000000" points="184.207,923.328 251.662,828.469 344.413,690.186 394.161,615.985 438.162,550.477 
		470.05,463.366 407.066,441.173 	"/>
	<line fill="none" stroke="#000000" x1="335.981" y1="526.065" x2="308.999" y2="683.441"/>
	<polyline fill="none" stroke="#000000" points="287.076,603.46 287.076,510.695 352.684,405.939 	"/>
	<line fill="none" stroke="#000000" x1="424.048" y1="416.585" x2="327.129" y2="348.708"/>
	<line fill="none" stroke="#000000" x1="455.456" y1="300.751" x2="394.079" y2="395.598"/>
	<polyline fill="none" stroke="#000000" points="665.618,298.041 691.387,264.25 784.138,331.788 	"/>
	<line fill="none" stroke="#000000" x1="746.193" y1="397.474" x2="796.785" y2="309.15"/>
	<polyline fill="none" stroke="#000000" points="468.929,561.205 362.964,777.878 346.916,777.878 370.552,795.377 362.964,777.878 
			"/>
	<line fill="none" stroke="#000000" x1="287.076" y1="847.319" x2="339.21" y2="772.169"/>
	<line fill="none" stroke="#000000" x1="379.323" y1="801.872" x2="330.533" y2="876.659"/>
	<line fill="none" stroke="#000000" x1="393.26" y1="865.891" x2="349.674" y2="847.319"/>
	<polyline fill="none" stroke="#000000" points="416.835,892.824 454.449,906.761 508.933,936.694 	"/>
	<polyline fill="none" stroke="#000000" points="488.31,973.567 585.145,809.514 621.503,740.823 667.601,653.435 	"/>
	<line fill="none" stroke="#000000" x1="528.825" y1="616.827" x2="767.273" y2="750.771"/>
	<line fill="none" stroke="#000000" x1="517.849" y1="645.372" x2="750.41" y2="776.909"/>
	<polyline fill="none" stroke="#000000" points="195.59,1087.205 308.999,872.315 302.466,857.71 322.49,871.228 308.999,872.315 	
		"/>
	<line fill="none" stroke="#000000" x1="208.238" y1="984.334" x2="219.06" y2="966.855"/>
	<polyline fill="none" stroke="#000000" points="366.486,1186.272 399.643,1137.795 447.704,1167.307 	"/>
	<path fill="none" stroke="#000000" d="M460.896,1071.685c0,0-4.76,10.46,10.418,21.421c15.178,10.962,11.805,15.178,11.805,15.178
		l-35.414,42.159l-6.942,12.604l-22.146-13.602l8.919-11.648l20.171,12.646"/>
	<line fill="none" stroke="#000000" x1="376.276" y1="1171.957" x2="425.781" y2="1205.25"/>
	<line fill="none" stroke="#000000" x1="410.034" y1="1194.661" x2="435.983" y2="1160.11"/>
	<line fill="none" stroke="#000000" x1="691.387" y1="463.006" x2="601.064" y2="616.827"/>
	<line fill="none" stroke="#000000" x1="750.41" y1="483.058" x2="659.64" y2="649.053"/>
	<polyline fill="none" stroke="#000000" points="734.779,511.643 750.41,521.002 716.261,582.133 701.619,572.284 574.979,500.396 	
		"/>
	<polyline fill="none" stroke="#000000" points="743.242,590.565 733.125,590.565 716.261,582.133 	"/>
	<path fill="none" stroke="#000000" stroke-miterlimit="10" d="M650.405,290.308l144.934,102.881l2.895-4.077L652.141,285.408
		c4.607-13.01,7.498-21.158,7.498-21.158l-17.115-12.991c0,0-4.374,10.506-8.47,21.311l-66.855-47.458l-2.895,4.077l67.94,48.229
		c-2.307,6.296-4.273,12.165-4.941,15.502c-0.827,4.137-20.321,49.044-42.632,100.32l-87.894-66.708l-0.086-0.062
		c-0.476-0.331-124.72-87.002-125.975-87.878l-2.861,4.101l124.565,86.896c0.529,0.37,0.967,0.675,1.348,0.909l-0.015,0.019
		l88.377,67.076c0,0-64.285,149.076-64.285,153.906c0,1.607-1.841,7.674-4.896,16.637l-1.299-0.714l-0.269-0.148L351.79,525.033
		l-183.814-48.062l-1.267,4.837l183.81,48.062l158.991,42.08l1.785,0.982c-14.071,40.386-46.666,124.742-55.841,148.333
		c-11.805,30.354-84.06,193.509-92.491,215.432c-5.09,13.232-30.604,71.899-50.033,116.34l-24.384-46.014l-91.639-56.851
		l-2.637,4.248l90.489,56.138l25.61,48.329c-11.532,26.359-20.345,46.396-20.345,46.396s-3.515,7.777-9.28,20.271l-33.435-16.967
		l-118.222-48.985l-1.914,4.619l117.958,48.868l33.513,17.007c-1.349,2.911-2.793,6.023-4.323,9.309L259.04,1123.9l-75.922-33.919
		l-54.138-19.464l-1.691,4.705l53.875,19.362l74.979,33.496l15.927,16.153c-24.155,51.677-66.103,138.702-83.614,158.549
		l24.843,12.646c0,0,1.678-3.097,4.659-8.667l100.945,74.203l2.961-4.029l-101.234-74.416c0,0,41.543-79.087,71.188-139.73
		l39.067,26.043l45.511,27.812l74.201,46.375l2.649-4.24l-74.223-46.388l-45.449-27.772l-39.547-26.363
		c2.631-5.401,5.248-10.818,7.843-16.23l88.645,69.409l0.145,0.112l72.674,41.406l2.476-4.344l-72.355-41.226l-89.233-69.872
		l-0.138-0.107c5.433-11.386,10.741-22.72,15.802-33.794c4.671-10.223,9.641-21.036,14.8-32.222l116.871-2.756l82.226,26.849
		l1.553-4.754l-83.04-27.114l-115.275,2.719c44.443-96.288,101.624-217.828,106.083-237.146
		c3.109-13.476,54.79-139.728,96.114-240.898l221.374,121.794l2.409-4.381L541.116,583.629
		c25.064-61.368,45.917-112.565,49.086-122.072C596.578,442.429,633.016,339.407,650.405,290.308z"/>
	<path fill="#F0CA02" stroke="#000000" stroke-width="0.5" stroke-miterlimit="10" d="M499.696,541.595
		c4.58,0,8.293,3.713,8.293,8.295c0,4.578-3.713,8.289-8.293,8.289c-4.578,0-8.291-3.711-8.291-8.289
		C491.405,545.308,495.118,541.595,499.696,541.595z"/>
	<path fill="#F0CA02" stroke="#000000" stroke-width="0.5" stroke-miterlimit="10" d="M599.84,306.917
		c4.58,0,8.293,3.713,8.293,8.295c0,4.578-3.713,8.289-8.293,8.289c-4.578,0-8.291-3.711-8.291-8.289
		C591.549,310.63,595.261,306.917,599.84,306.917z"/>
	<path fill="#F0CA02" stroke="#000000" stroke-width="0.5" stroke-miterlimit="10" d="M403.631,790.272
		c4.58,0,8.293,3.713,8.293,8.295c0,4.578-3.713,8.289-8.293,8.289c-4.578,0-8.291-3.711-8.291-8.289
		C395.34,793.985,399.052,790.272,403.631,790.272z"/>
	<path fill="#F0CA02" stroke="#000000" stroke-width="0.5" stroke-miterlimit="10" d="M290.201,1047.948
		c4.58,0,8.293,3.713,8.293,8.295c0,4.578-3.713,8.289-8.293,8.289c-4.578,0-8.291-3.711-8.291-8.289
		C281.91,1051.661,285.623,1047.948,290.201,1047.948z"/>
	<path fill="#058855" stroke="#000000" stroke-width="0.5" stroke-miterlimit="10" d="M192.234,1271.98h-4.689v-5.002h-1.879v11.883
		h1.879v-5.317h4.689v5.317h1.877v-11.883h-1.877V1271.98z"/>
	<path fill="#058855" stroke="#000000" stroke-width="0.5" stroke-miterlimit="10" d="M502.043,548.948h-4.689v-5.002h-1.879v11.883
		h1.879v-5.317h4.689v5.317h1.877v-11.883h-1.877V548.948z"/>
	<path fill="#058855" stroke="#000000" stroke-width="0.5" stroke-miterlimit="10" d="M602.185,314.271h-4.689v-5.002h-1.879v11.883
		h1.879v-5.317h4.689v5.317h1.877v-11.883h-1.877V314.271z"/>
	<path fill="#058855" stroke="#000000" stroke-width="0.5" stroke-miterlimit="10" d="M405.976,797.625h-4.689v-5.003h-1.879v11.884
		h1.879v-5.318h4.689v5.318h1.877v-11.884h-1.877V797.625z"/>
	<path fill="#058855" stroke="#000000" stroke-width="0.5" stroke-miterlimit="10" d="M292.547,1055.302h-4.688v-5.002h-1.879
		v11.883h1.879v-5.318h4.688v5.318h1.877V1050.3h-1.877V1055.302z"/>
	<g enable-background="new    ">
		<path d="M51.476,60.635c0.224,1.578,0.662,2.758,1.316,3.539c1.196,1.422,3.246,2.133,6.15,2.133c1.739,0,3.151-0.188,4.236-0.562
			c2.058-0.719,3.087-2.055,3.087-4.008c0-1.141-0.504-2.023-1.512-2.648c-1.008-0.609-2.607-1.148-4.796-1.617l-3.74-0.82
			c-3.676-0.812-6.201-1.695-7.576-2.648c-2.328-1.594-3.492-4.086-3.492-7.477c0-3.094,1.139-5.664,3.417-7.711
			s5.623-3.07,10.036-3.07c3.685,0,6.829,0.965,9.431,2.895c2.602,1.93,3.966,4.73,4.093,8.402h-6.938
			c-0.128-2.078-1.057-3.555-2.787-4.43c-1.154-0.578-2.587-0.867-4.301-0.867c-1.907,0-3.428,0.375-4.565,1.125
			c-1.138,0.75-1.706,1.797-1.706,3.141c0,1.234,0.561,2.156,1.682,2.766c0.721,0.406,2.25,0.883,4.589,1.43l6.063,1.43
			c2.657,0.625,4.648,1.461,5.975,2.508c2.059,1.625,3.089,3.977,3.089,7.055c0,3.156-1.22,5.777-3.66,7.863
			c-2.44,2.086-5.887,3.129-10.34,3.129c-4.548,0-8.125-1.027-10.731-3.082s-3.909-4.879-3.909-8.473H51.476z"/>
		<path d="M96.109,45.894c1.283,0.547,2.337,1.384,3.163,2.51c0.7,0.954,1.127,1.936,1.283,2.944
			c0.155,1.009,0.233,2.654,0.233,4.938v15.014h-6.82V55.742c0-1.377-0.233-2.487-0.698-3.332c-0.604-1.188-1.752-1.783-3.443-1.783
			c-1.752,0-3.083,0.591-3.99,1.771c-0.908,1.182-1.361,2.866-1.361,5.057v13.844h-6.68v-34.43h6.68v12.188
			c0.965-1.484,2.081-2.52,3.349-3.105s2.602-0.879,4.002-0.879C93.398,45.073,94.825,45.346,96.109,45.894z"/>
		<path d="M128.374,68.174c-2.156,2.661-5.43,3.992-9.82,3.992s-7.664-1.331-9.82-3.992c-2.156-2.662-3.234-5.866-3.234-9.613
			c0-3.684,1.078-6.877,3.234-9.577c2.156-2.701,5.43-4.052,9.82-4.052s7.664,1.351,9.82,4.052c2.156,2.7,3.234,5.894,3.234,9.577
			C131.609,62.308,130.531,65.512,128.374,68.174z M123.031,64.482c1.047-1.389,1.57-3.362,1.57-5.921s-0.523-4.528-1.57-5.909
			s-2.547-2.071-4.5-2.071s-3.457,0.69-4.512,2.071s-1.582,3.351-1.582,5.909s0.527,4.532,1.582,5.921s2.559,2.083,4.512,2.083
			S121.984,65.87,123.031,64.482z"/>
		<path d="M143.046,45.752v15.398c0,1.453,0.171,2.547,0.513,3.281c0.606,1.297,1.795,1.945,3.568,1.945
			c2.27,0,3.825-0.922,4.665-2.766c0.435-1,0.653-2.32,0.653-3.961V45.752h6.773v25.547h-6.492V67.69
			c-0.062,0.078-0.218,0.312-0.467,0.703c-0.25,0.391-0.545,0.734-0.888,1.031c-1.044,0.938-2.053,1.578-3.026,1.922
			c-0.975,0.344-2.115,0.516-3.424,0.516c-3.771,0-6.31-1.359-7.619-4.078c-0.732-1.5-1.098-3.711-1.098-6.633V45.752H143.046z"/>
		<path d="M172.531,71.299h-6.68V36.752h6.68V71.299z"/>
		<path d="M192.593,46.162c1.203,0.68,2.18,1.621,2.93,2.824V36.799h6.773v34.5h-6.492V67.76c-0.953,1.516-2.039,2.617-3.258,3.305
			s-2.734,1.031-4.547,1.031c-2.984,0-5.496-1.207-7.535-3.621s-3.059-5.512-3.059-9.293c0-4.359,1.004-7.789,3.012-10.289
			s4.691-3.75,8.051-3.75C190.015,45.143,191.39,45.483,192.593,46.162z M194.234,64.362c0.984-1.406,1.477-3.227,1.477-5.461
			c0-3.125-0.789-5.359-2.367-6.703c-0.969-0.812-2.094-1.219-3.375-1.219c-1.953,0-3.387,0.738-4.301,2.215
			s-1.371,3.309-1.371,5.496c0,2.359,0.465,4.246,1.395,5.66s2.34,2.121,4.23,2.121S193.249,65.768,194.234,64.362z"/>
		<path d="M228.827,71.299h-7.172V36.752h7.172V71.299z"/>
		<path d="M253.554,63.143c0.142,1.188,0.447,2.031,0.918,2.531c0.832,0.891,2.371,1.336,4.616,1.336
			c1.318,0,2.367-0.195,3.144-0.586c0.777-0.391,1.166-0.977,1.166-1.758c0-0.75-0.313-1.32-0.939-1.711s-2.955-1.062-6.987-2.016
			c-2.903-0.719-4.948-1.617-6.136-2.695c-1.188-1.062-1.781-2.594-1.781-4.594c0-2.359,0.928-4.387,2.783-6.082
			s4.467-2.543,7.833-2.543c3.194,0,5.798,0.637,7.81,1.91s3.167,3.473,3.465,6.598h-6.68c-0.094-0.859-0.337-1.539-0.729-2.039
			c-0.736-0.906-1.99-1.359-3.761-1.359c-1.457,0-2.495,0.227-3.114,0.68s-0.928,0.984-0.928,1.594c0,0.766,0.329,1.32,0.987,1.664
			c0.657,0.359,2.982,0.977,6.974,1.852c2.661,0.625,4.656,1.57,5.984,2.836c1.312,1.281,1.969,2.883,1.969,4.805
			c0,2.531-0.943,4.598-2.83,6.199s-4.803,2.402-8.748,2.402c-4.023,0-6.994-0.848-8.912-2.543s-2.877-3.855-2.877-6.48H253.554z"/>
		<path d="M272.445,50.744v-4.758h3.562v-7.125h6.609v7.125h4.148v4.758h-4.148v13.5c0,1.047,0.133,1.699,0.398,1.957
			s1.078,0.387,2.438,0.387c0.203,0,0.418-0.004,0.645-0.012s0.449-0.02,0.668-0.035v4.992l-3.164,0.117
			c-3.156,0.109-5.312-0.438-6.469-1.641c-0.75-0.766-1.125-1.945-1.125-3.539V50.744H272.445z"/>
		<path d="M301.172,55.76c1.243-0.156,2.133-0.352,2.668-0.586c0.96-0.406,1.44-1.039,1.44-1.898c0-1.047-0.368-1.77-1.104-2.168
			c-0.737-0.398-1.817-0.598-3.243-0.598c-1.6,0-2.732,0.391-3.397,1.172c-0.476,0.578-0.792,1.359-0.95,2.344h-6.445
			c0.141-2.234,0.769-4.07,1.883-5.508c1.773-2.25,4.817-3.375,9.134-3.375c2.809,0,5.304,0.555,7.485,1.664
			c2.181,1.109,3.271,3.203,3.271,6.281v11.719c0,0.812,0.016,1.797,0.047,2.953c0.047,0.875,0.18,1.469,0.398,1.781
			s0.547,0.57,0.984,0.773v0.984h-7.266c-0.203-0.516-0.344-1-0.422-1.453s-0.141-0.969-0.188-1.547
			c-0.928,1-1.996,1.852-3.206,2.555c-1.446,0.828-3.081,1.242-4.903,1.242c-2.326,0-4.248-0.66-5.764-1.98
			c-1.518-1.32-2.275-3.191-2.275-5.613c0-3.141,1.22-5.414,3.659-6.82c1.339-0.766,3.306-1.312,5.903-1.641L301.172,55.76z
			 M305.257,58.877c-0.428,0.266-0.859,0.48-1.295,0.645c-0.437,0.164-1.034,0.316-1.794,0.457l-1.521,0.281
			c-1.426,0.25-2.449,0.555-3.07,0.914c-1.053,0.609-1.578,1.555-1.578,2.836c0,1.141,0.321,1.965,0.964,2.473
			s1.424,0.762,2.344,0.762c1.46,0,2.805-0.422,4.034-1.266s1.868-2.383,1.916-4.617V58.877z"/>
		<path d="M318.757,76.198l0.844,0.047c0.656,0.031,1.281,0.008,1.875-0.07s1.094-0.258,1.5-0.539
			c0.391-0.266,0.754-0.82,1.09-1.664s0.48-1.359,0.434-1.547l-9.387-26.672h7.43l5.578,18.844l5.273-18.844h7.102l-8.758,25.125
			c-1.693,4.844-3.032,7.848-4.018,9.012s-2.956,1.746-5.913,1.746c-0.594,0-1.071-0.004-1.431-0.012
			c-0.36-0.008-0.9-0.035-1.619-0.082V76.198z"/>
		<path d="M379.085,68.174c-2.156,2.661-5.43,3.992-9.82,3.992s-7.664-1.331-9.82-3.992c-2.156-2.662-3.234-5.866-3.234-9.613
			c0-3.684,1.078-6.877,3.234-9.577c2.156-2.701,5.43-4.052,9.82-4.052s7.664,1.351,9.82,4.052c2.156,2.7,3.234,5.894,3.234,9.577
			C382.32,62.308,381.241,65.512,379.085,68.174z M373.741,64.482c1.047-1.389,1.57-3.362,1.57-5.921s-0.523-4.528-1.57-5.909
			s-2.547-2.071-4.5-2.071s-3.457,0.69-4.512,2.071s-1.582,3.351-1.582,5.909s0.527,4.532,1.582,5.921s2.559,2.083,4.512,2.083
			S372.695,65.87,373.741,64.482z"/>
		<path d="M401.292,45.155c0.086,0.008,0.277,0.02,0.574,0.035v6.844c-0.422-0.047-0.797-0.078-1.125-0.094
			s-0.594-0.023-0.797-0.023c-2.688,0-4.492,0.875-5.414,2.625c-0.516,0.984-0.773,2.5-0.773,4.547v12.211h-6.727V45.752h6.375
			v4.453c1.031-1.703,1.93-2.867,2.695-3.492c1.25-1.047,2.875-1.57,4.875-1.57C401.101,45.143,401.206,45.147,401.292,45.155z"/>
		<path d="M424.296,63.143c0.142,1.188,0.447,2.031,0.918,2.531c0.833,0.891,2.372,1.336,4.616,1.336
			c1.318,0,2.367-0.195,3.145-0.586s1.166-0.977,1.166-1.758c0-0.75-0.314-1.32-0.939-1.711c-0.627-0.391-2.955-1.062-6.988-2.016
			c-2.903-0.719-4.948-1.617-6.135-2.695c-1.188-1.062-1.781-2.594-1.781-4.594c0-2.359,0.928-4.387,2.783-6.082
			s4.467-2.543,7.833-2.543c3.195,0,5.799,0.637,7.811,1.91s3.166,3.473,3.465,6.598h-6.68c-0.094-0.859-0.338-1.539-0.729-2.039
			c-0.736-0.906-1.99-1.359-3.762-1.359c-1.457,0-2.494,0.227-3.113,0.68c-0.619,0.453-0.928,0.984-0.928,1.594
			c0,0.766,0.329,1.32,0.987,1.664c0.658,0.359,2.982,0.977,6.975,1.852c2.66,0.625,4.656,1.57,5.984,2.836
			c1.312,1.281,1.969,2.883,1.969,4.805c0,2.531-0.943,4.598-2.83,6.199s-4.803,2.402-8.748,2.402c-4.024,0-6.995-0.848-8.913-2.543
			s-2.877-3.855-2.877-6.48H424.296z"/>
		<path d="M464.172,45.894c1.283,0.547,2.338,1.384,3.162,2.51c0.699,0.954,1.127,1.936,1.283,2.944s0.234,2.654,0.234,4.938v15.014
			h-6.82V55.742c0-1.377-0.232-2.487-0.699-3.332c-0.604-1.188-1.752-1.783-3.441-1.783c-1.754,0-3.084,0.591-3.99,1.771
			c-0.908,1.182-1.361,2.866-1.361,5.057v13.844h-6.68v-34.43h6.68v12.188c0.965-1.484,2.08-2.52,3.348-3.105
			s2.602-0.879,4.002-0.879C461.461,45.073,462.888,45.346,464.172,45.894z"/>
		<path d="M496.437,68.174c-2.156,2.661-5.43,3.992-9.82,3.992s-7.664-1.331-9.82-3.992c-2.156-2.662-3.234-5.866-3.234-9.613
			c0-3.684,1.078-6.877,3.234-9.577c2.156-2.701,5.43-4.052,9.82-4.052s7.664,1.351,9.82,4.052c2.156,2.7,3.234,5.894,3.234,9.577
			C499.672,62.308,498.594,65.512,496.437,68.174z M491.094,64.482c1.047-1.389,1.57-3.362,1.57-5.921s-0.523-4.528-1.57-5.909
			s-2.547-2.071-4.5-2.071s-3.457,0.69-4.512,2.071s-1.582,3.351-1.582,5.909s0.527,4.532,1.582,5.921s2.559,2.083,4.512,2.083
			S490.047,65.87,491.094,64.482z"/>
		<path d="M511.109,45.752v15.398c0,1.453,0.17,2.547,0.512,3.281c0.607,1.297,1.797,1.945,3.568,1.945
			c2.27,0,3.826-0.922,4.664-2.766c0.436-1,0.654-2.32,0.654-3.961V45.752h6.773v25.547h-6.492V67.69
			c-0.062,0.078-0.219,0.312-0.467,0.703c-0.25,0.391-0.547,0.734-0.889,1.031c-1.045,0.938-2.053,1.578-3.027,1.922
			s-2.115,0.516-3.424,0.516c-3.77,0-6.311-1.359-7.619-4.078c-0.732-1.5-1.098-3.711-1.098-6.633V45.752H511.109z"/>
		<path d="M540.594,71.299h-6.68V36.752h6.68V71.299z"/>
		<path d="M560.656,46.162c1.203,0.68,2.18,1.621,2.93,2.824V36.799h6.773v34.5h-6.492V67.76c-0.953,1.516-2.039,2.617-3.258,3.305
			s-2.734,1.031-4.547,1.031c-2.984,0-5.496-1.207-7.535-3.621s-3.059-5.512-3.059-9.293c0-4.359,1.004-7.789,3.012-10.289
			s4.691-3.75,8.051-3.75C558.078,45.143,559.453,45.483,560.656,46.162z M562.297,64.362c0.984-1.406,1.477-3.227,1.477-5.461
			c0-3.125-0.789-5.359-2.367-6.703c-0.969-0.812-2.094-1.219-3.375-1.219c-1.953,0-3.387,0.738-4.301,2.215
			s-1.371,3.309-1.371,5.496c0,2.359,0.465,4.246,1.395,5.66s2.34,2.121,4.23,2.121S561.312,65.768,562.297,64.362z"/>
		<path d="M596.89,71.299h-7.172V36.752h7.172V71.299z"/>
		<path d="M629.074,45.729c1.623,0.672,2.934,1.906,3.934,3.703v-3.68h6.516v24.234c0,3.297-0.555,5.781-1.664,7.453
			c-1.906,2.875-5.562,4.312-10.969,4.312c-3.266,0-5.93-0.641-7.992-1.922s-3.203-3.195-3.422-5.742h7.266
			c0.188,0.781,0.492,1.344,0.914,1.688c0.719,0.609,1.93,0.914,3.633,0.914c2.406,0,4.016-0.805,4.828-2.414
			c0.531-1.031,0.797-2.766,0.797-5.203v-1.641c-0.641,1.094-1.328,1.914-2.062,2.461c-1.328,1.016-3.055,1.523-5.18,1.523
			c-3.281,0-5.902-1.152-7.863-3.457s-2.941-5.426-2.941-9.363c0-3.797,0.943-6.988,2.832-9.574s4.564-3.879,8.029-3.879
			C627.008,45.143,628.123,45.338,629.074,45.729z M631.349,64.045c1.074-1.18,1.611-3.059,1.611-5.637
			c0-2.422-0.51-4.266-1.529-5.531s-2.385-1.898-4.096-1.898c-2.334,0-3.945,1.102-4.832,3.305
			c-0.467,1.172-0.699,2.617-0.699,4.336c0,1.484,0.248,2.805,0.746,3.961c0.902,2.156,2.521,3.234,4.855,3.234
			C628.961,65.815,630.275,65.225,631.349,64.045z"/>
		<path d="M667.062,68.174c-2.156,2.661-5.43,3.992-9.82,3.992s-7.664-1.331-9.82-3.992c-2.156-2.662-3.234-5.866-3.234-9.613
			c0-3.684,1.078-6.877,3.234-9.577c2.156-2.701,5.43-4.052,9.82-4.052s7.664,1.351,9.82,4.052c2.156,2.7,3.234,5.894,3.234,9.577
			C670.297,62.308,669.219,65.512,667.062,68.174z M661.719,64.482c1.047-1.389,1.57-3.362,1.57-5.921s-0.523-4.528-1.57-5.909
			s-2.547-2.071-4.5-2.071s-3.457,0.69-4.512,2.071s-1.582,3.351-1.582,5.909s0.527,4.532,1.582,5.921s2.559,2.083,4.512,2.083
			S660.672,65.87,661.719,64.482z"/>
		<path d="M679.508,38.182c1.844-1.188,4.109-1.781,6.797-1.781c3.531,0,6.465,0.844,8.801,2.531s3.504,4.188,3.504,7.5
			c0,2.031-0.508,3.742-1.52,5.133c-0.592,0.844-1.73,1.922-3.412,3.234l-1.66,1.289c-0.904,0.703-1.504,1.523-1.801,2.461
			c-0.186,0.594-0.287,1.516-0.303,2.766h-6.352c0.094-2.641,0.342-4.465,0.748-5.473c0.404-1.008,1.447-2.168,3.131-3.48
			l1.705-1.336c0.561-0.422,1.014-0.883,1.355-1.383c0.623-0.859,0.936-1.805,0.936-2.836c0-1.188-0.348-2.27-1.041-3.246
			s-1.961-1.465-3.799-1.465c-1.809,0-3.092,0.602-3.848,1.805s-1.133,2.453-1.133,3.75h-6.773
			C675.031,43.198,676.586,40.041,679.508,38.182z M683.398,64.526h7.008v6.773h-7.008V64.526z"/>
	</g>
</g>
<g id="Cut">
	<path fill="none" stroke="#2F57A4" stroke-miterlimit="10" d="M204.163,1310.699l-5.117-2.44
		c1.963-4.114,196.374-411.766,204.649-436.953c4.38-13.332,52.541-131.281,99.115-245.349
		c44.174-108.186,85.896-210.37,89.334-220.897c7.109-21.776,55.951-147.936,56.439-149.199l4.704,3.57
		c-0.488,1.262-48.692,125.756-55.756,147.388c-3.499,10.723-45.261,113-89.475,221.282
		c-46.537,113.976-94.659,231.832-98.979,244.975C400.691,898.605,212.184,1293.885,204.163,1310.699z"/>
	<path fill="none" stroke="#000000" stroke-miterlimit="10" d="M146.831,130.2c24.035-22.685,56.443-36.592,92.104-36.592
		c35.657,0,68.068,13.907,92.104,36.592l-0.002,0.004l-42.192,44.719h0.008c-13.025-12.295-30.59-19.83-49.916-19.83
		c-19.324,0-36.89,7.535-49.914,19.828L146.831,130.2z"/>
</g>
</svg>
