<?xml version="1.0" encoding="utf-8"?>
<!-- Generator: Adobe Illustrator 16.0.0, SVG Export Plug-In . SVG Version: 6.00 Build 0)  -->
<!DOCTYPE svg PUBLIC "-//W3C//DTD SVG 1.1//EN" "http://www.w3.org/Graphics/SVG/1.1/DTD/svg11.dtd">
<svg version="1.1" xmlns="http://www.w3.org/2000/svg" xmlns:xlink="http://www.w3.org/1999/xlink" x="0px" y="0px"
	 width="298.684px" height="157.895px" viewBox="0 0 298.684 157.895" enable-background="new 0 0 298.684 157.895"
	 xml:space="preserve">
<g id="Windows" display="none">
	<path display="inline" fill="none" stroke="#000000" stroke-miterlimit="10" d="M242.269,49.216
		c-24.036,22.684-56.444,36.591-92.104,36.591c-35.659,0-68.068-13.907-92.104-36.591l0.002-0.004l42.193-44.719h-0.007
		c13.025,12.295,30.59,19.83,49.917,19.83c19.324,0,36.889-7.535,49.914-19.828L242.269,49.216z"/>
</g>
<g id="Mark">
	<g>
		<g>
			<path d="M205.459,91.427c-2.335,0.226-5.308,0.994-8.017,2.455c-4.02,2.168-5.603,5.132-4.35,7.982
				c1.161,2.642,3.721,3.526,9.047,2.438c6.396-1.308,11.331-1.643,13.747,1.976c2.671,3.999-0.247,10.458-8.139,14.406
				c-4.157,2.08-7.546,2.672-9.671,2.681c0.105-1.442,0.149-2.163,0.22-3.601c1.514-0.033,4.581-0.324,8.151-2.117
				c5.386-2.705,6.037-6.184,4.957-7.993c-1.479-2.479-4.395-2.267-10.075-1.279c-6.962,1.21-10.929-0.157-12.542-4.395
				c-1.695-4.451,0.444-9.386,7.352-13.142c2.823-1.535,6.271-2.698,8.417-2.827C204.935,89.37,205.111,90.054,205.459,91.427z"/>
			<path d="M180.421,126.384c5.105-1.171,7.637-1.902,12.611-3.664c0.453,1.278,0.679,1.917,1.132,3.195
				c-10.883,3.266-20.743,5.279-32.036,6.522c-0.084-1.354-0.126-2.027-0.21-3.381c5.224-0.322,7.833-0.634,13.002-1.553
				c-1.932-10.822-2.894-16.235-4.822-27.058c1.678-0.299,2.515-0.469,4.18-0.851C176.734,110.312,177.961,115.668,180.421,126.384z
				"/>
			<path d="M154.976,111.505c1.497-3.886,2.171-5.846,3.365-9.781c1.735-0.069,2.603-0.127,4.333-0.283
				c-3.344,10.989-7.2,20.789-12.179,31.144c-2.745-0.101-4.117-0.192-6.854-0.453c-3.601-10.925-6.153-21.15-8.046-32.493
				c1.761,0.399,2.645,0.578,4.419,0.885c0.711,4.064,1.146,6.098,2.171,10.15C147.279,111.345,149.849,111.512,154.976,111.505z
				 M142.769,113.884c1.023,3.705,1.6,5.555,2.887,9.23c0.731,2.084,1.223,3.956,1.74,5.779c0.05,0.003,0.075,0.007,0.125,0.01
				c0.75-1.788,1.538-3.627,2.407-5.469c1.752-3.497,2.562-5.263,4.055-8.822C149.487,114.574,147.238,114.428,142.769,113.884z"/>
			<path d="M127.63,97.427c-1.641,4.977-2.463,7.465-4.103,12.441c2.32,8.25,3.918,12.394,7.997,20.469
				c-2.55-0.515-3.82-0.808-6.344-1.464c-1.564-3.929-2.251-5.904-3.439-9.858c-0.811-2.709-1.326-4.873-1.741-7.311
				c-0.043-0.016-0.064-0.023-0.108-0.039c-1.719,1.522-3.711,2.929-6.076,4.491c-3.499,2.26-5.326,3.328-9.125,5.307
				c-2.396-1.128-3.583-1.73-5.927-3c8.728-3.337,12.775-5.437,20.084-10.218c1.891-4.907,2.837-7.36,4.729-12.267
				C125.187,96.6,125.999,96.889,127.63,97.427z"/>
			<path d="M109.809,91.938c-0.833,1.424-2.578,1.79-4.106,0.826c-1.619-1.021-1.962-2.707-1.035-4.071
				c0.901-1.325,2.547-1.69,4.066-0.732C110.21,88.892,110.618,90.554,109.809,91.938z M105.319,96.888
				c-4.282,7.688-6.39,11.552-10.549,19.312c-2.236-1.326-3.342-2.023-5.52-3.483c5.214-7.093,7.792-10.661,12.889-17.834
				C103.399,95.712,104.036,96.112,105.319,96.888z"/>
		</g>
	</g>
</g>
<g id="Cut">
	<path fill="none" stroke="#000000" stroke-miterlimit="10" d="M150.366,149.553c78.276,0,141.733-63.456,141.733-141.731H8.634
		C8.634,86.097,72.088,149.553,150.366,149.553z"/>
</g>
</svg>
