<?xml version="1.0" encoding="utf-8"?>
<!-- Generator: Adobe Illustrator 16.0.0, SVG Export Plug-In . SVG Version: 6.00 Build 0)  -->
<!DOCTYPE svg PUBLIC "-//W3C//DTD SVG 1.1//EN" "http://www.w3.org/Graphics/SVG/1.1/DTD/svg11.dtd">
<svg version="1.1" id="Ebene_1" xmlns="http://www.w3.org/2000/svg" xmlns:xlink="http://www.w3.org/1999/xlink" x="0px" y="0px"
	 width="566.93px" height="566.93px" viewBox="0 0 566.93 566.93" enable-background="new 0 0 566.93 566.93" xml:space="preserve">
<circle fill="#FFFFFF" stroke="#000000" stroke-miterlimit="10" cx="91.073" cy="129.231" r="45.354"/>
<circle fill="#FFFFFF" stroke="#000000" stroke-miterlimit="10" cx="340.158" cy="129.231" r="56.693"/>
<circle fill="#FFFFFF" stroke="#000000" stroke-miterlimit="10" cx="214.131" cy="129.231" r="56.693"/>
<path fill="none" stroke="#000000" stroke-width="0.5" stroke-miterlimit="10" d="M85.981,124.268v9.875V124.268l0.064-0.02
	c1.285-1.299,3.067-2.104,5.039-2.104c3.914,0,7.087,3.173,7.087,7.087c0,3.913-3.173,7.086-7.087,7.086
	c-2.006,0-3.818-0.834-5.108-2.174L85.981,124.268z"/>
<path fill="none" stroke="#000000" stroke-width="0.5" stroke-miterlimit="10" d="M208.96,124.268v9.875V124.268l0.064-0.02
	c1.285-1.299,3.067-2.104,5.039-2.104c3.914,0,7.087,3.173,7.087,7.087c0,3.913-3.173,7.086-7.087,7.086
	c-2.006,0-3.818-0.834-5.108-2.174L208.96,124.268z"/>
<path fill="none" stroke="#000000" stroke-width="0.5" stroke-miterlimit="10" d="M335.039,124.268v9.875V124.268l0.064-0.02
	c1.284-1.299,3.066-2.104,5.038-2.104c3.914,0,7.087,3.173,7.087,7.087c0,3.913-3.173,7.086-7.087,7.086
	c-2.007,0-3.818-0.834-5.108-2.174L335.039,124.268z"/>
<path fill="none" stroke="#000000" stroke-miterlimit="10" d="M169.391,343.938"/>
</svg>
