<?xml version="1.0" encoding="utf-8"?>
<!-- Generator: Adobe Illustrator 16.0.0, SVG Export Plug-In . SVG Version: 6.00 Build 0)  -->
<!DOCTYPE svg PUBLIC "-//W3C//DTD SVG 1.1//EN" "http://www.w3.org/Graphics/SVG/1.1/DTD/svg11.dtd">
<svg version="1.1" xmlns="http://www.w3.org/2000/svg" xmlns:xlink="http://www.w3.org/1999/xlink" x="0px" y="0px"
	 width="301.315px" height="165.947px" viewBox="0 0 301.315 165.947" enable-background="new 0 0 301.315 165.947"
	 xml:space="preserve">
<g id="Windows" display="none">
	<path display="inline" fill="none" stroke="#000000" stroke-miterlimit="10" d="M60.692,67.934
		c24.036-22.684,56.444-36.591,92.104-36.591c35.659,0,68.068,13.907,92.104,36.591l-0.002,0.004l-42.193,44.719h0.007
		c-13.025-12.295-30.59-19.83-49.917-19.83c-19.324,0-36.888,7.535-49.914,19.828L60.692,67.934z"/>
</g>
<g id="Mark">
	<g>
		<g>
			<path d="M141.875,58.875c-2.25,0.995-6.606,2.754-11.881,3.683c-5.912,1.041-11.022,0.817-15.928-1.526
				c-4.333-2.07-8.244-6.229-10.214-11.946c-4.762-13.814,8.467-23.976,20.688-25.887c5.839-0.913,10.648-0.466,12.904,0.14
				c-0.484,1.69-0.719,2.536-1.172,4.229c-2.735-0.653-6.249-0.929-11.185-0.188c-9.434,1.418-18.511,9.196-15.327,19.575
				c2.868,9.349,10.479,13.076,19.869,11.447c3.41-0.591,5.693-1.335,6.836-2.054c-0.555-4.607-0.833-6.91-1.387-11.518
				c-3.604,0.434-5.401,0.706-8.979,1.361c-0.291-1.59-0.438-2.386-0.729-3.976c5.957-1.09,8.959-1.486,14.974-1.979
				C140.957,47.691,141.263,51.419,141.875,58.875z"/>
			<path d="M188.105,44.467c-2.549,10.501-11.965,17.968-22.89,16.916c-10.493-1.01-18.016-9.87-18.512-20.206
				c-0.619-12.891,11.107-20.867,23.076-19.714C181.401,22.583,191.047,32.35,188.105,44.467z M152.964,40.938
				c-0.009,8.312,4.702,15.592,12.941,16.394c8.299,0.807,14.339-5.301,16.038-13.968c1.488-7.59-2.086-16.797-12.865-17.852
				C158.373,24.465,152.974,32.396,152.964,40.938z"/>
			<path d="M189.623,62.342c0.567-1.999,2.475-3.024,4.5-2.391c2.145,0.671,3.019,2.566,2.346,4.533
				c-0.654,1.912-2.447,2.936-4.481,2.299C190.01,66.165,189.071,64.286,189.623,62.342z M193.424,54.852
				c2.8-10.729,4.166-16.104,6.832-26.87c2.837,0.821,4.249,1.263,7.058,2.209c-3.948,10.364-5.889,15.559-9.704,25.971
				C195.94,55.611,195.104,55.35,193.424,54.852z"/>
		</g>
	</g>
</g>
<g id="Cut">
	<path fill="none" stroke="#000000" stroke-miterlimit="10" d="M152.998,5.957c-78.277,0-141.732,63.455-141.732,141.732H294.73
		C294.73,69.412,231.273,5.957,152.998,5.957z"/>
</g>
</svg>
